<svg xmlns="http://www.w3.org/2000/svg" viewBox="0 0 96.27 38.31"><defs><style>.cls-1{fill:#3e4651;}</style></defs><title>Ресурс 3</title><g id="Слой_2" data-name="Слой 2"><g id="Слой_1-2" data-name="Слой 1"><path class="cls-1" d="M77.12,14.26a7.13,7.13,0,1,1,7.13-7.13A7.14,7.14,0,0,1,77.12,14.26Zm0-12A4.89,4.89,0,1,0,82,7.13,4.9,4.9,0,0,0,77.12,2.24Z"/><path class="cls-1" d="M19.15,14.26A7.13,7.13,0,0,1,19.15,0a1.12,1.12,0,0,1,0,2.24,4.89,4.89,0,0,0,0,9.77,1.12,1.12,0,0,1,0,2.24Z"/><path class="cls-1" d="M77.12,2.24h-58a1.12,1.12,0,1,1,0-2.24h58a1.12,1.12,0,1,1,0,2.24Z"/><path class="cls-1" d="M71.11,14.26h-52a1.12,1.12,0,0,1,0-2.24h52a1.12,1.12,0,1,1,0,2.24Z"/><path class="cls-1" d="M83.14,26.29a7.13,7.13,0,1,1,7.13-7.13A7.14,7.14,0,0,1,83.14,26.29Zm0-12A4.89,4.89,0,1,0,88,19.16,4.9,4.9,0,0,0,83.14,14.26Z"/><path class="cls-1" d="M71.11,14.26H25.18a1.12,1.12,0,0,1,0-2.24H71.11a1.12,1.12,0,1,1,0,2.24Z"/><path class="cls-1" d="M65.1,26.28H25.18a1.12,1.12,0,1,1,0-2.24H65.1a1.12,1.12,0,1,1,0,2.24Z"/><path class="cls-1" d="M71.11,26.29a7.13,7.13,0,1,1,7.13-7.13A7.14,7.14,0,0,1,71.11,26.29Zm0-12A4.89,4.89,0,1,0,76,19.16,4.9,4.9,0,0,0,71.11,14.26Z"/><path class="cls-1" d="M13.14,26.28a7.13,7.13,0,0,1,0-14.25,1.12,1.12,0,0,1,0,2.24,4.89,4.89,0,1,0,0,9.77,1.12,1.12,0,1,1,0,2.24Z"/><path class="cls-1" d="M71.11,14.26h-58a1.12,1.12,0,0,1,0-2.24h58a1.12,1.12,0,0,1,0,2.24Z"/><path class="cls-1" d="M65.1,26.28h-52a1.12,1.12,0,1,1,0-2.24h52a1.12,1.12,0,1,1,0,2.24Z"/><path class="cls-1" d="M77.12,38.31a7.13,7.13,0,1,1,7.13-7.13A7.14,7.14,0,0,1,77.12,38.31Zm0-12A4.89,4.89,0,1,0,82,31.18,4.9,4.9,0,0,0,77.12,26.29Z"/><path class="cls-1" d="M65.1,26.28H19.16a1.12,1.12,0,1,1,0-2.24H65.1a1.12,1.12,0,1,1,0,2.24Z"/><path class="cls-1" d="M77.12,38.31h-58a1.12,1.12,0,1,1,0-2.24h58a1.12,1.12,0,1,1,0,2.24Z"/><path class="cls-1" d="M65.1,38.31a7.13,7.13,0,1,1,7.13-7.13A7.14,7.14,0,0,1,65.1,38.31Zm0-12A4.89,4.89,0,1,0,70,31.18,4.9,4.9,0,0,0,65.1,26.29Z"/><path class="cls-1" d="M7.13,38.31a7.13,7.13,0,1,1,0-14.25,1.12,1.12,0,1,1,0,2.24,4.89,4.89,0,1,0,0,9.77,1.12,1.12,0,1,1,0,2.24Z"/><path class="cls-1" d="M65.1,26.29h-58a1.12,1.12,0,0,1,0-2.24h58a1.12,1.12,0,1,1,0,2.24Z"/><path class="cls-1" d="M65.1,38.31h-58a1.12,1.12,0,0,1,0-2.24h58a1.12,1.12,0,1,1,0,2.24Z"/><path class="cls-1" d="M89.14,38.31a7.13,7.13,0,1,1,7.13-7.13A7.14,7.14,0,0,1,89.14,38.31Zm0-12A4.89,4.89,0,1,0,94,31.18,4.9,4.9,0,0,0,89.14,26.29Z"/><path class="cls-1" d="M65.1,26.28H27.56a1.12,1.12,0,1,1,0-2.24H65.1a1.12,1.12,0,1,1,0,2.24Z"/><path class="cls-1" d="M89.14,38.31H27.56a1.12,1.12,0,0,1,0-2.24H89.14a1.12,1.12,0,0,1,0,2.24Z"/></g></g></svg>