<svg xmlns="http://www.w3.org/2000/svg" viewBox="0 0 89.13 52.39"><defs><style>.cls-1{fill:#3e4651;}</style></defs><title>Ресурс 4</title><g id="Слой_2" data-name="Слой 2"><g id="Слой_1-2" data-name="Слой 1"><path class="cls-1" d="M59.78,45.77H40.92a1.05,1.05,0,0,1-1.05-1.05V38.1a1.05,1.05,0,0,1,1.05-1.05H59.78a1.05,1.05,0,0,1,1.05,1.05v6.61A1.05,1.05,0,0,1,59.78,45.77ZM42,43.66H58.73V39.15H42Z"/><path class="cls-1" d="M78.65,45.77H59.78a1.05,1.05,0,0,1-1.05-1.05V38.1A1.05,1.05,0,0,1,59.78,37H78.65A1.05,1.05,0,0,1,79.7,38.1v6.62A1.05,1.05,0,0,1,78.65,45.77Zm-17.82-2.1H77.6V39.15H60.83Z"/><path class="cls-1" d="M69.22,39.15H50.35A1.05,1.05,0,0,1,49.3,38.1V31.48a1.05,1.05,0,0,1,1.05-1.05H69.22a1.05,1.05,0,0,1,1.05,1.05V38.1A1.05,1.05,0,0,1,69.22,39.15ZM51.4,37H68.17V32.53H51.4Z"/><path class="cls-1" d="M88.08,52.39H69.22a1.05,1.05,0,0,1-1.05-1.05V44.72a1.05,1.05,0,0,1,1.05-1.05H88.08a1.05,1.05,0,0,1,1.05,1.05v6.62A1.05,1.05,0,0,1,88.08,52.39Zm-17.82-2.1H87V45.77H70.27Z"/><path class="cls-1" d="M50.35,52.39H31.49a1.05,1.05,0,0,1-1.05-1.05V44.73a1.05,1.05,0,0,1,1.05-1.05H50.35a1.05,1.05,0,0,1,1.05,1.05v6.61A1.05,1.05,0,0,1,50.35,52.39Zm-17.81-2.1H49.3V45.78H32.54Z"/><path class="cls-1" d="M69.22,52.39H50.35a1.05,1.05,0,0,1-1.05-1.05V44.72a1.05,1.05,0,0,1,1.05-1.05H69.22a1.05,1.05,0,0,1,1.05,1.05v6.62A1.05,1.05,0,0,1,69.22,52.39ZM51.4,50.29H68.17V45.77H51.4Z"/><path class="cls-1" d="M10.5,15.35A1.05,1.05,0,0,1,9.45,14.3V7.68A1.05,1.05,0,0,1,10.5,6.63h9.43a1.05,1.05,0,1,1,0,2.1H11.55V14.3A1.05,1.05,0,0,1,10.5,15.35Z"/><path class="cls-1" d="M19.93,8.73a1.05,1.05,0,0,1-1.05-1.05V1.05A1.05,1.05,0,0,1,19.93,0H38.79a1.05,1.05,0,0,1,0,2.1H21V7.68A1.05,1.05,0,0,1,19.93,8.73Z"/><path class="cls-1" d="M57.66,15.35H52a1.05,1.05,0,1,1,0-2.1h5.62a1.05,1.05,0,1,1,0,2.1Z"/><path class="cls-1" d="M1.05,22A1.05,1.05,0,0,1,0,20.91V14.3a1.05,1.05,0,0,1,1.05-1.05H10.5a1.05,1.05,0,1,1,0,2.1H2.1v5.56A1.05,1.05,0,0,1,1.05,22Z"/><path class="cls-1" d="M31.49,52.39a1,1,0,0,1-.74-.31L.31,21.65a1.05,1.05,0,0,1,1.49-1.49L32.23,50.59a1.05,1.05,0,0,1-.74,1.79Z"/><path class="cls-1" d="M31.49,45.78a1,1,0,0,1-.74-.31L.31,15a1.05,1.05,0,0,1,1.49-1.49L32.23,44a1.05,1.05,0,0,1-.74,1.79Z"/><path class="cls-1" d="M40.92,45.77a1,1,0,0,1-.74-.31L9.76,15a1.05,1.05,0,0,1,1.49-1.49L41.66,44a1.05,1.05,0,0,1-.74,1.79Z"/><path class="cls-1" d="M40.92,39.59a1,1,0,0,1-.75-.31L9.75,8.42a1.05,1.05,0,0,1,1.5-1.48L41.67,37.8a1.05,1.05,0,0,1-.75,1.79Z"/><path class="cls-1" d="M50.35,39.15a1,1,0,0,1-.74-.31L19.19,8.42a1.05,1.05,0,0,1,1.49-1.49L51.09,37.36a1.05,1.05,0,0,1-.74,1.79Z"/><path class="cls-1" d="M50.35,32.53a1,1,0,0,1-.74-.31L19.19,1.79A1.05,1.05,0,0,1,20.67.31L51.09,30.73a1.05,1.05,0,0,1-.74,1.79Z"/><path class="cls-1" d="M69.22,32.53a1,1,0,0,1-.74-.31L38.05,1.79A1.05,1.05,0,1,1,39.54.31L70,30.73a1.05,1.05,0,0,1-.74,1.79Z"/><path class="cls-1" d="M88.08,45.77a1,1,0,0,1-.74-.31L56.91,15a1.05,1.05,0,0,1,1.49-1.49L88.82,44a1.05,1.05,0,0,1-.74,1.79Z"/></g></g></svg>