<svg xmlns="http://www.w3.org/2000/svg" viewBox="0 0 97 54"><title>Ресурс 2</title><g id="Слой_2" data-name="Слой 2"><g id="Слой_1-2" data-name="Слой 1"><path d="M95.94,39.28c-11.59,0-18.41-9.81-25-19.3C64.53,10.77,58.48,2.07,48.56,2.07c-8.85,0-15.11,8.51-21.73,17.53C19.73,29.28,12.38,39.28,1,39.28a1,1,0,1,1,0-2.07c10.26,0,17.29-9.57,24.09-18.83C31.78,9.34,38.64,0,48.56,0c11,0,17.67,9.56,24.1,18.81,6.58,9.46,12.8,18.4,23.28,18.4h0a1,1,0,1,1,0,2.07Z"/><path d="M30.15,33.17a1.2,1.2,0,1,1,1.2-1.2A1.2,1.2,0,0,1,30.15,33.17Z"/><path d="M41.37,14.21a1.2,1.2,0,1,1,1.2-1.2A1.2,1.2,0,0,1,41.37,14.21Z"/><path d="M55.18,29.83a1.2,1.2,0,1,1,1.2-1.2A1.2,1.2,0,0,1,55.18,29.83Z"/><path d="M41.52,25.69a1.2,1.2,0,1,1,1.2-1.2A1.2,1.2,0,0,1,41.52,25.69Z"/><path d="M62.25,14.38a1.2,1.2,0,1,1,1.2-1.2A1.2,1.2,0,0,1,62.25,14.38Z"/><path d="M53.69,17.6a1.2,1.2,0,1,1,1.2-1.2A1.2,1.2,0,0,1,53.69,17.6Z"/><path d="M66.73,26a1.2,1.2,0,1,1,1.2-1.2A1.2,1.2,0,0,1,66.73,26Z"/><path d="M41.82,36.26a1.2,1.2,0,1,1,1.2-1.2A1.2,1.2,0,0,1,41.82,36.26Z"/><path d="M19.17,36.09a1.2,1.2,0,1,1,1.2-1.2A1.2,1.2,0,0,1,19.17,36.09Z"/><path d="M32.58,22.63a1.2,1.2,0,1,1,1.2-1.2A1.2,1.2,0,0,1,32.58,22.63Z"/><path d="M77.42,35.92a1.2,1.2,0,1,1,1.2-1.2A1.2,1.2,0,0,1,77.42,35.92Z"/><path d="M51.27,7.65a1.2,1.2,0,1,1,1.2-1.2A1.2,1.2,0,0,1,51.27,7.65Z"/><path d="M95.95,54c-8,0-12.76-4-17.35-7.89-4.38-3.7-8.52-7.19-15.36-7.19-6.11,0-10.39,3.42-14.92,7-4.94,4-10.05,8-17.88,8a1,1,0,1,1,0-2.07c7.08,0,11.9-3.85,16.56-7.57s9.39-7.51,16.24-7.51c7.61,0,12.24,3.91,16.72,7.69s8.75,7.39,16,7.39h0A1,1,0,1,1,96,54Z"/><path d="M50.53,51.52a1.1,1.1,0,1,1,1.15-1.1A1.19,1.19,0,0,1,50.53,51.52Z"/><path d="M58.27,43.84a1.1,1.1,0,1,1,1.15-1.1A1.19,1.19,0,0,1,58.27,43.84Z"/><path d="M67.81,46.45A1.1,1.1,0,1,1,69,45.35,1.2,1.2,0,0,1,67.81,46.45Z"/><path d="M62.35,52.77a1.1,1.1,0,1,1,1.15-1.1A1.2,1.2,0,0,1,62.35,52.77Z"/><path d="M75.62,52.64a1.11,1.11,0,1,1,1.15-1.1A1.2,1.2,0,0,1,75.62,52.64Z"/></g></g></svg>