<?xml version="1.0" encoding="iso-8859-1"?>
<!-- Generator: Adobe Illustrator 16.0.0, SVG Export Plug-In . SVG Version: 6.00 Build 0)  -->
<!DOCTYPE svg PUBLIC "-//W3C//DTD SVG 1.1//EN" "http://www.w3.org/Graphics/SVG/1.1/DTD/svg11.dtd">
<svg version="1.1" xmlns="http://www.w3.org/2000/svg" xmlns:xlink="http://www.w3.org/1999/xlink" x="0px" y="0px"
	 width="52.909px" height="55.692px" viewBox="0 0 52.909 55.692" style="enable-background:new 0 0 52.909 55.692;"
	 xml:space="preserve">
<g id="_x32_5_x5F_wood">
	<g>
		
			<path style="fill:none;stroke:#44444D;stroke-width:3.6922;stroke-linecap:round;stroke-linejoin:round;stroke-miterlimit:10;" d="
			M8.414,8.128c2.19,9.422,5.715,27.045,3.807,35.868"/>
		
			<path style="fill:none;stroke:#44444D;stroke-width:3.6922;stroke-linecap:round;stroke-linejoin:round;stroke-miterlimit:10;" d="
			M14.998,1.846c0,0,0.036,31.301,10.484,31.301c10.447,0,10.123-31.301,10.123-31.301"/>
		
			<path style="fill:none;stroke:#44444D;stroke-width:3.6922;stroke-linecap:round;stroke-linejoin:round;stroke-miterlimit:10;" d="
			M25.856,6.669c4.082,0,4.812,16.288-0.088,16.643C20.874,23.667,21.777,6.669,25.856,6.669z"/>
		
			<path style="fill:none;stroke:#44444D;stroke-width:3.6922;stroke-linecap:round;stroke-linejoin:round;stroke-miterlimit:10;" d="
			M41.566,8.047c0,0,0.086,27.315-7.287,35.949"/>
		
			<line style="fill:none;stroke:#44444D;stroke-width:3.6922;stroke-linecap:round;stroke-linejoin:round;stroke-miterlimit:10;" x1="45.775" y1="1.846" x2="51.063" y2="1.846"/>
		
			<polyline style="fill:none;stroke:#44444D;stroke-width:3.6922;stroke-linecap:round;stroke-linejoin:round;stroke-miterlimit:10;" points="
			51.063,1.846 51.063,43.996 1.846,43.996 1.846,1.846 39.427,1.846 		"/>
		
			<polyline style="fill:none;stroke:#44444D;stroke-width:3.6922;stroke-linecap:round;stroke-linejoin:round;stroke-miterlimit:10;" points="
			10.997,50.047 8.094,53.847 1.846,53.847 1.846,43.996 		"/>
		
			<polyline style="fill:none;stroke:#44444D;stroke-width:3.6922;stroke-linecap:round;stroke-linejoin:round;stroke-miterlimit:10;" points="
			51.063,49.203 51.063,53.847 40.852,53.847 38.252,48.333 35.073,53.847 14.071,53.847 		"/>
		
			<path style="fill:none;stroke:#44444D;stroke-width:3.6922;stroke-linecap:round;stroke-linejoin:round;stroke-miterlimit:10;" d="
			M17.992,35.909c1.056,7.181,9.314,9.339,13.735,1.695"/>
		
			<path style="fill:none;stroke:#44444D;stroke-width:3.6922;stroke-linecap:round;stroke-linejoin:round;stroke-miterlimit:10;" d="
			M48.239,1.846c0,0,0.012,22.587-3.84,36.314"/>
		
			<path style="fill:none;stroke:#44444D;stroke-width:3.6922;stroke-linecap:round;stroke-linejoin:round;stroke-miterlimit:10;" d="
			M1.846,13.208c0,0,4.657,11.349,4.471,24.882"/>
	</g>
</g>
<g id="Layer_1">
</g>
</svg>
