<svg xmlns="http://www.w3.org/2000/svg" viewBox="0 0 82.44 82.44"><defs><style>.cls-1{fill:#3e4651;}</style></defs><title>Ресурс 2</title><g id="Слой_2" data-name="Слой 2"><g id="Layer_1" data-name="Layer 1"><path class="cls-1" d="M41.22,82.44A41.22,41.22,0,1,1,82.44,41.22,41.27,41.27,0,0,1,41.22,82.44Zm0-81A39.82,39.82,0,1,0,81,41.22,39.87,39.87,0,0,0,41.22,1.4Z"/><path class="cls-1" d="M51.37,55.43H38.79a.7.7,0,0,1-.7-.7V50.32a.7.7,0,0,1,.7-.7H51.37a.7.7,0,0,1,.7.7v4.41A.7.7,0,0,1,51.37,55.43ZM39.49,54H50.67V51H39.49Z"/><path class="cls-1" d="M63.94,55.43H51.37a.7.7,0,0,1-.7-.7V50.32a.7.7,0,0,1,.7-.7H63.94a.7.7,0,0,1,.7.7v4.41A.7.7,0,0,1,63.94,55.43ZM52.07,54H63.24V51H52.07Z"/><path class="cls-1" d="M57.66,51H45.08a.7.7,0,0,1-.7-.7V45.9a.7.7,0,0,1,.7-.7H57.66a.7.7,0,0,1,.7.7v4.41A.7.7,0,0,1,57.66,51Zm-11.88-1.4H57v-3H45.78Z"/><path class="cls-1" d="M70.23,59.85H57.66a.7.7,0,0,1-.7-.7V54.73a.7.7,0,0,1,.7-.7H70.23a.7.7,0,0,1,.7.7v4.41A.7.7,0,0,1,70.23,59.85Zm-11.88-1.4H69.53v-3H58.36Z"/><path class="cls-1" d="M45.08,59.84H32.5a.7.7,0,0,1-.7-.7V54.74a.7.7,0,0,1,.7-.7H45.08a.7.7,0,0,1,.7.7v4.41A.7.7,0,0,1,45.08,59.84ZM33.2,58.44H44.38v-3H33.2Z"/><path class="cls-1" d="M57.66,59.85H45.08a.7.7,0,0,1-.7-.7V54.73a.7.7,0,0,1,.7-.7H57.66a.7.7,0,0,1,.7.7v4.41A.7.7,0,0,1,57.66,59.85Zm-11.88-1.4H57v-3H45.78Z"/><path class="cls-1" d="M18.51,35.15a.7.7,0,0,1-.7-.7V30a.7.7,0,0,1,.7-.7H24.8a.7.7,0,0,1,0,1.4H19.21v3.71A.7.7,0,0,1,18.51,35.15Z"/><path class="cls-1" d="M24.8,30.74a.7.7,0,0,1-.7-.7V25.62a.7.7,0,0,1,.7-.7H37.37a.7.7,0,0,1,0,1.4H25.5V30A.7.7,0,0,1,24.8,30.74Z"/><path class="cls-1" d="M49.95,35.15H46.2a.7.7,0,1,1,0-1.4h3.75a.7.7,0,1,1,0,1.4Z"/><path class="cls-1" d="M12.21,39.56a.7.7,0,0,1-.7-.7V34.45a.7.7,0,0,1,.7-.7h6.3a.7.7,0,1,1,0,1.4h-5.6v3.71A.7.7,0,0,1,12.21,39.56Z"/><path class="cls-1" d="M32.5,59.84a.7.7,0,0,1-.5-.21L11.72,39.35a.7.7,0,0,1,1-1L33,58.65a.7.7,0,0,1-.5,1.2Z"/><path class="cls-1" d="M32.5,55.44a.7.7,0,0,1-.5-.21L11.72,34.94a.7.7,0,1,1,1-1L33,54.24a.7.7,0,0,1-.5,1.2Z"/><path class="cls-1" d="M38.79,55.43a.7.7,0,0,1-.5-.21L18,34.94a.7.7,0,1,1,1-1L39.29,54.23a.7.7,0,0,1-.5,1.2Z"/><path class="cls-1" d="M38.79,51.31a.7.7,0,0,1-.5-.21L18,30.53a.7.7,0,0,1,1-1L39.29,50.12a.7.7,0,0,1-.5,1.19Z"/><path class="cls-1" d="M45.08,51a.7.7,0,0,1-.5-.21L24.3,30.53a.7.7,0,0,1,1-1L45.57,49.82a.7.7,0,0,1-.5,1.2Z"/><path class="cls-1" d="M45.08,46.6a.7.7,0,0,1-.5-.21L24.3,26.11a.7.7,0,0,1,1-1L45.57,45.41a.7.7,0,0,1-.5,1.2Z"/><path class="cls-1" d="M57.66,46.6a.7.7,0,0,1-.5-.21L36.88,26.11a.7.7,0,0,1,1-1L58.15,45.41a.7.7,0,0,1-.5,1.2Z"/><path class="cls-1" d="M70.23,55.43a.7.7,0,0,1-.5-.21L49.45,34.94a.7.7,0,1,1,1-1L70.73,54.24a.7.7,0,0,1-.5,1.2Z"/></g></g></svg>