<svg xmlns="http://www.w3.org/2000/svg" viewBox="0 0 82.44 82.44"><defs><style>.cls-1{fill:#3e4651;}</style></defs><title>Ресурс 1</title><g id="Слой_2" data-name="Слой 2"><g id="Layer_1" data-name="Layer 1"><path class="cls-1" d="M41.22,82.44A41.22,41.22,0,1,1,82.44,41.22,41.27,41.27,0,0,1,41.22,82.44Zm0-81A39.82,39.82,0,1,0,81,41.22,39.87,39.87,0,0,0,41.22,1.4Z"/><path class="cls-1" d="M59.34,38.38a4.46,4.46,0,1,1,4.46-4.46A4.46,4.46,0,0,1,59.34,38.38Zm0-7.51a3.06,3.06,0,1,0,3.06,3.06A3.06,3.06,0,0,0,59.34,30.86Z"/><path class="cls-1" d="M23.1,38.38a4.45,4.45,0,0,1,0-8.91.7.7,0,1,1,0,1.4,3.05,3.05,0,0,0,0,6.11.7.7,0,1,1,0,1.4Z"/><path class="cls-1" d="M59.34,30.86H23.11a.7.7,0,1,1,0-1.4H59.34a.7.7,0,1,1,0,1.4Z"/><path class="cls-1" d="M55.58,38.38H23.11a.7.7,0,0,1,0-1.4H55.58a.7.7,0,0,1,0,1.4Z"/><path class="cls-1" d="M63.1,45.89a4.46,4.46,0,1,1,4.46-4.46A4.46,4.46,0,0,1,63.1,45.89Zm0-7.52a3.06,3.06,0,1,0,3.06,3.06A3.06,3.06,0,0,0,63.1,38.38Z"/><path class="cls-1" d="M55.58,38.38H26.87a.7.7,0,0,1,0-1.4H55.58a.7.7,0,0,1,0,1.4Z"/><path class="cls-1" d="M51.82,45.89h-25a.7.7,0,1,1,0-1.4h25a.7.7,0,1,1,0,1.4Z"/><path class="cls-1" d="M55.58,45.89A4.46,4.46,0,1,1,60,41.44,4.46,4.46,0,0,1,55.58,45.89Zm0-7.52a3.06,3.06,0,1,0,3.06,3.06A3.06,3.06,0,0,0,55.58,38.38Z"/><path class="cls-1" d="M19.35,45.89a4.45,4.45,0,0,1,0-8.91.7.7,0,0,1,0,1.4,3.05,3.05,0,1,0,0,6.11.7.7,0,1,1,0,1.4Z"/><path class="cls-1" d="M55.58,38.38H19.35a.7.7,0,0,1,0-1.4H55.58a.7.7,0,0,1,0,1.4Z"/><path class="cls-1" d="M51.82,45.89H19.35a.7.7,0,1,1,0-1.4H51.82a.7.7,0,1,1,0,1.4Z"/><path class="cls-1" d="M59.34,53.41A4.46,4.46,0,1,1,63.8,49,4.46,4.46,0,0,1,59.34,53.41Zm0-7.52A3.06,3.06,0,1,0,62.4,49,3.06,3.06,0,0,0,59.34,45.89Z"/><path class="cls-1" d="M51.82,45.89H23.11a.7.7,0,1,1,0-1.4H51.82a.7.7,0,1,1,0,1.4Z"/><path class="cls-1" d="M59.34,53.41H23.11a.7.7,0,1,1,0-1.4H59.34a.7.7,0,0,1,0,1.4Z"/><path class="cls-1" d="M51.82,53.41A4.46,4.46,0,1,1,56.28,49,4.46,4.46,0,0,1,51.82,53.41Zm0-7.52A3.06,3.06,0,1,0,54.88,49,3.06,3.06,0,0,0,51.82,45.89Z"/><path class="cls-1" d="M15.59,53.41a4.45,4.45,0,1,1,0-8.91.7.7,0,1,1,0,1.4,3.05,3.05,0,1,0,0,6.11.7.7,0,0,1,0,1.4Z"/><path class="cls-1" d="M51.82,45.89H15.6a.7.7,0,0,1,0-1.4H51.82a.7.7,0,1,1,0,1.4Z"/><path class="cls-1" d="M51.82,53.41H15.6a.7.7,0,1,1,0-1.4H51.82a.7.7,0,0,1,0,1.4Z"/><path class="cls-1" d="M66.85,53.41A4.46,4.46,0,1,1,71.31,49,4.46,4.46,0,0,1,66.85,53.41Zm0-7.52A3.06,3.06,0,1,0,69.91,49,3.06,3.06,0,0,0,66.85,45.89Z"/><path class="cls-1" d="M51.82,45.89H28.36a.7.7,0,1,1,0-1.4H51.82a.7.7,0,1,1,0,1.4Z"/><path class="cls-1" d="M66.85,53.41H28.36a.7.7,0,1,1,0-1.4H66.85a.7.7,0,1,1,0,1.4Z"/></g></g></svg>