<?xml version="1.0" encoding="iso-8859-1"?>
<!-- Generator: Adobe Illustrator 16.0.0, SVG Export Plug-In . SVG Version: 6.00 Build 0)  -->
<!DOCTYPE svg PUBLIC "-//W3C//DTD SVG 1.1//EN" "http://www.w3.org/Graphics/SVG/1.1/DTD/svg11.dtd">
<svg version="1.1" xmlns="http://www.w3.org/2000/svg" xmlns:xlink="http://www.w3.org/1999/xlink" x="0px" y="0px"
	 width="57.556px" height="50.438px" viewBox="0 0 57.556 50.438" style="enable-background:new 0 0 57.556 50.438;"
	 xml:space="preserve">
<g id="_x32_7_x5F_stone">
	<g>
		
			<path style="fill:none;stroke:#44444D;stroke-width:3.6922;stroke-linecap:round;stroke-linejoin:round;stroke-miterlimit:10;" d="
			M54.312,27.595c0.719-1.229,1.191-2.695,1.346-4.427c0.63-7.06-4.53-8.993-10.692-9.349C45.518,7.501,38.883,2.216,30.068,1.87
			c-8.815-0.347-16.625,3.101-16.051,12.535C5.52,14.989-0.369,20.034,2.645,28.887c1.735,5.098,8.359,7.487,15.386,8.211"/>
		
			<path style="fill:none;stroke:#44444D;stroke-width:3.6922;stroke-linecap:round;stroke-linejoin:round;stroke-miterlimit:10;" d="
			M41.897,26.038c-6.972-1.443-16.365-0.025-18.424,8.354c-1.361,5.54,2.201,9.531,7.405,10.989
			c4.357,1.221,13.141,1.026,17.078-1.737C56.371,37.742,50.722,27.865,41.897,26.038z"/>
		
			<path style="fill:none;stroke:#44444D;stroke-width:3.6922;stroke-linecap:round;stroke-linejoin:round;stroke-miterlimit:10;" d="
			M38.135,14.179c-0.561-0.112,4.81-0.483,6.83-0.359"/>
		
			<path style="fill:none;stroke:#44444D;stroke-width:3.6922;stroke-linecap:round;stroke-linejoin:round;stroke-miterlimit:10;" d="
			M14.017,14.405c2.336-0.428,5.31-0.165,7.519,0.559"/>
		
			<path style="fill:none;stroke:#44444D;stroke-width:3.6922;stroke-linecap:round;stroke-linejoin:round;stroke-miterlimit:10;" d="
			M27.335,16.38c0.256-0.057,0.498-0.012,0.697,0.14"/>
		
			<path style="fill:none;stroke:#44444D;stroke-width:3.6922;stroke-linecap:round;stroke-linejoin:round;stroke-miterlimit:10;" d="
			M11.428,47.631c3.74,2.491,11.7-0.223,8.151-3.966C14.724,38.547,5.157,43.454,11.428,47.631z"/>
		
			<path style="fill:none;stroke:#44444D;stroke-width:3.6922;stroke-linecap:round;stroke-linejoin:round;stroke-miterlimit:10;" d="
			M46.333,37.031c-0.459,2.204-3.188,3.133-5.378,3.362"/>
		
			<path style="fill:none;stroke:#44444D;stroke-width:3.6922;stroke-linecap:round;stroke-linejoin:round;stroke-miterlimit:10;" d="
			M11.153,20.226c-3.306,0.582-4.169,4.121-2.465,5.602"/>
		
			<path style="fill:none;stroke:#44444D;stroke-width:3.6922;stroke-linecap:round;stroke-linejoin:round;stroke-miterlimit:10;" d="
			M49.57,21.265c0.536,0.737,0.646,1.688,0.315,2.528"/>
		
			<path style="fill:none;stroke:#44444D;stroke-width:3.6922;stroke-linecap:round;stroke-linejoin:round;stroke-miterlimit:10;" d="
			M22.739,8.221c1.154-1.064,2.763-1.364,4.331-1.237"/>
		<path style="fill:#44444D;" d="M1.71,40.034c0-1.193,0.97-2.166,2.168-2.166c1.195,0,2.164,0.973,2.164,2.166
			c0,1.2-0.968,2.169-2.164,2.169C2.68,42.203,1.71,41.234,1.71,40.034z"/>
	</g>
</g>
<g id="Layer_1">
</g>
</svg>
