<svg xmlns="http://www.w3.org/2000/svg" viewBox="0 0 82.44 82.44"><defs><style>.cls-1{fill:#3e4651;}.cls-2{fill:#4d4d4d;}</style></defs><title>Ресурс 5</title><g id="Слой_2" data-name="Слой 2"><g id="Слой_1-2" data-name="Слой 1"><path class="cls-1" d="M41.22,82.44A41.22,41.22,0,1,1,82.44,41.22,41.27,41.27,0,0,1,41.22,82.44Zm0-81A39.82,39.82,0,1,0,81,41.22,39.87,39.87,0,0,0,41.22,1.4Z"/><path class="cls-2" d="M71.39,48.69c-7.3,0-11.59-5.3-15.75-10.43-4-5-7.84-9.67-14.09-9.67-5.57,0-9.51,4.6-13.68,9.47-4.47,5.23-9.1,10.63-16.24,10.63a.57.57,0,1,1,0-1.12c6.46,0,10.89-5.17,15.17-10.17s8.5-9.93,14.75-9.93c6.94,0,11.13,5.16,15.18,10.16s8.06,9.94,14.66,9.94h0a.62.62,0,0,1,.66.56C72.05,48.44,71.78,48.67,71.39,48.69Z"/><path class="cls-2" d="M30,45.38a.66.66,0,1,1,.76-.65A.71.71,0,0,1,30,45.38Z"/><path class="cls-2" d="M37,35.14a.66.66,0,1,1,.75-.65A.71.71,0,0,1,37,35.14Z"/><path class="cls-2" d="M45.72,43.59a.66.66,0,1,1,.75-.65A.71.71,0,0,1,45.72,43.59Z"/><path class="cls-2" d="M37.12,41.35a.66.66,0,1,1,.76-.65A.71.71,0,0,1,37.12,41.35Z"/><path class="cls-2" d="M50.17,35.23a.66.66,0,1,1,.76-.65A.71.71,0,0,1,50.17,35.23Z"/><path class="cls-2" d="M44.78,37a.66.66,0,1,1,.75-.65A.71.71,0,0,1,44.78,37Z"/><path class="cls-2" d="M53,41.53a.66.66,0,1,1,.75-.65A.71.71,0,0,1,53,41.53Z"/><path class="cls-2" d="M37.31,47.05a.66.66,0,1,1,.75-.65A.71.71,0,0,1,37.31,47.05Z"/><path class="cls-2" d="M23,47a.66.66,0,1,1,.75-.65A.71.71,0,0,1,23,47Z"/><path class="cls-2" d="M31.49,39.7a.66.66,0,1,1,.75-.65A.71.71,0,0,1,31.49,39.7Z"/><path class="cls-2" d="M59.72,46.87a.66.66,0,1,1,.75-.65A.71.71,0,0,1,59.72,46.87Z"/><path class="cls-2" d="M43.26,31.6A.66.66,0,1,1,44,31,.71.71,0,0,1,43.26,31.6Z"/><path class="cls-2" d="M71.39,56.64c-5,0-8-2.17-10.93-4.26s-5.36-3.89-9.67-3.89c-3.85,0-6.54,1.85-9.4,3.81-3.11,2.13-6.33,4.34-11.26,4.34a.57.57,0,1,1,0-1.12c4.46,0,7.49-2.08,10.43-4.09s5.91-4.06,10.23-4.06c4.79,0,7.71,2.11,10.53,4.15s5.51,4,10.07,4h0a.57.57,0,1,1,0,1.12Z"/><path class="cls-2" d="M42.79,55.3a.61.61,0,1,1,.72-.6A.71.71,0,0,1,42.79,55.3Z"/><path class="cls-2" d="M47.67,51.15a.61.61,0,1,1,.73-.6A.71.71,0,0,1,47.67,51.15Z"/><path class="cls-2" d="M53.67,52.56a.61.61,0,1,1,.72-.6A.71.71,0,0,1,53.67,52.56Z"/><path class="cls-2" d="M50.23,56a.61.61,0,1,1,.72-.6A.71.71,0,0,1,50.23,56Z"/><path class="cls-2" d="M58.59,55.9a.61.61,0,1,1,.72-.6A.71.71,0,0,1,58.59,55.9Z"/></g></g></svg>