<svg xmlns="http://www.w3.org/2000/svg" viewBox="0 0 87.44 80.48"><defs><style>.cls-1{fill:#4d4d4d;}</style></defs><title>Ресурс 1</title><g id="Слой_2" data-name="Слой 2"><g id="Слой_1-2" data-name="Слой 1"><path class="cls-1" d="M83.76,41.33H3.67A3.5,3.5,0,0,1,0,38V3.29A3.5,3.5,0,0,1,3.67,0H83.76a3.5,3.5,0,0,1,3.67,3.29V38A3.5,3.5,0,0,1,83.76,41.33ZM3.67,2.18A1.18,1.18,0,0,0,2.43,3.29V38a1.18,1.18,0,0,0,1.24,1.11H83.76A1.18,1.18,0,0,0,85,38V3.29a1.18,1.18,0,0,0-1.24-1.11Z"/><path class="cls-1" d="M29.29,28.19c-4.13,0-9.93-2.25-15.57-4.44C9,21.9,4,20,1.19,19.93A1.15,1.15,0,0,1,0,18.82a1.16,1.16,0,0,1,1.24-1.07c3.33.06,8.24,2,13.44,4,6,2.32,12.71,4.94,16,4.12a52.32,52.32,0,0,0,5.87-2.07c4.4-1.73,9.38-3.69,13.52-3.31a23,23,0,0,1,6.54,1.66,19.43,19.43,0,0,0,6.2,1.5c3.18.21,9.63-2.88,15.3-5.59,2.73-1.3,5.3-2.53,7.63-3.48a1.27,1.27,0,0,1,1.61.54,1,1,0,0,1-.6,1.44c-2.25.92-4.8,2.13-7.49,3.42C73,23,66.51,26,62.62,25.82a21.92,21.92,0,0,1-7-1.67,20.48,20.48,0,0,0-5.85-1.5c-3.49-.32-8.16,1.52-12.29,3.14A54,54,0,0,1,31.32,28,8.38,8.38,0,0,1,29.29,28.19Z"/><path class="cls-1" d="M63.34,14.28c-5.56,0-10.91-1.58-16.1-3.1A66.67,66.67,0,0,0,34.38,8.29c-5.91-.51-10.52.9-15.4,2.39A49,49,0,0,1,6.13,13.31c-1.13,0-2.91.11-4.89.13h0A1.16,1.16,0,0,1,0,12.37a1.15,1.15,0,0,1,1.2-1.1c1.95,0,3.7-.09,4.82-.13A46.23,46.23,0,0,0,18.2,8.62c4.91-1.49,10-3,16.41-2.5A68.66,68.66,0,0,1,48,9.11c5.74,1.69,11.16,3.29,16.85,3A29.75,29.75,0,0,0,74,9.63c1.05-.41,2.1-.81,3.16-1.17a28,28,0,0,1,7-1.52c.67,0,1.39-.07,2.08-.07A1.16,1.16,0,0,1,87.43,8,1.16,1.16,0,0,1,86.22,9c-.63,0-1.29,0-1.89.06A25,25,0,0,0,78,10.5c-1,.35-2,.74-3.05,1.13a31.81,31.81,0,0,1-10,2.61Q64.17,14.28,63.34,14.28Z"/><path class="cls-1" d="M30.82,38.06a23.72,23.72,0,0,1-6.39-.89c-1.69-.47-3.27-1-4.79-1.61C16.21,34.3,13,33.1,8.76,33.28A38.93,38.93,0,0,0,1.53,34.5,1.23,1.23,0,0,1,0,33.72a1.08,1.08,0,0,1,.86-1.33A41.18,41.18,0,0,1,8.63,31.1c4.77-.19,8.41,1.14,11.92,2.44,1.48.54,3,1.11,4.59,1.54,5.68,1.58,11.29.79,17.16-2.42,5.48-3,11.33-2,17-1,4.16.71,8.09,1.39,11.87.61a17,17,0,0,0,8.63-4.35l.29-.27A11,11,0,0,1,86,24.3a1.21,1.21,0,0,1,1.41.88,1.1,1.1,0,0,1-1,1.27c-2,.33-3.27,1.5-4.61,2.75l-.28.26a19.67,19.67,0,0,1-9.84,5c-4.29.88-8.65.13-12.87-.59-5.45-.93-10.59-1.82-15.27.71A26.32,26.32,0,0,1,30.82,38.06Z"/><path class="cls-1" d="M29.22,20.15a6.66,6.66,0,0,1-1.1-.09A46.9,46.9,0,0,1,20,17.78a1.1,1.1,0,0,1-.73-1,1.08,1.08,0,0,1,.65-1c.28-.13,7.33-3.36,12-3a11.52,11.52,0,0,1,3.72.74,11.57,11.57,0,0,0,3.9.68,1.19,1.19,0,0,1,1.08.81,1,1,0,0,1-.49,1.18C39.79,16.39,33.56,20.15,29.22,20.15Zm-5.63-3.46a39.1,39.1,0,0,0,5,1.23c1.91.32,4.91-.84,7.26-2a9.59,9.59,0,0,1-1.19-.38,9.09,9.09,0,0,0-3-.58C29.21,14.79,25.88,15.84,23.58,16.69Z"/><path class="cls-1" d="M58.69,5.15A38.24,38.24,0,0,1,44.45,2.09a1,1,0,0,1-.6-1.44A1.28,1.28,0,0,1,45.46.1c5.4,2.22,13.42,4.29,21,1.57,1.5-.55,3.05-1.08,4.6-1.6a1.26,1.26,0,0,1,1.56.64,1.06,1.06,0,0,1-.72,1.4c-1.52.5-3,1-4.53,1.57A25.34,25.34,0,0,1,58.69,5.15Z"/><path class="cls-1" d="M83.76,80.48H3.67A3.5,3.5,0,0,1,0,77.19V42.44a3.5,3.5,0,0,1,3.67-3.29H83.76a3.5,3.5,0,0,1,3.67,3.29V77.19A3.5,3.5,0,0,1,83.76,80.48ZM3.67,41.33a1.18,1.18,0,0,0-1.24,1.11V77.19A1.18,1.18,0,0,0,3.67,78.3H83.76A1.18,1.18,0,0,0,85,77.19V42.44a1.18,1.18,0,0,0-1.24-1.11Z"/><path class="cls-1" d="M86.22,66.55h-.11c-5.11-.41-10.41-1.22-15.53-2-8.78-1.36-17.85-2.76-26.17-2.1-3.08.25-6.14.4-9.09.54-3.92.19-8,.38-12,.83l-4.43.49A139,139,0,0,1,3.36,65.45c-.68,0-1.4,0-2.07.08a1.18,1.18,0,0,1-1.29-1,1.14,1.14,0,0,1,1.14-1.15c.72,0,1.49-.08,2.22-.08a136.83,136.83,0,0,0,15.19-1.15L23,61.64c4.14-.45,8.23-.65,12.2-.84,2.94-.14,6-.29,9-.53,8.64-.68,17.87.74,26.8,2.12,5.07.78,10.32,1.59,15.33,2a1.13,1.13,0,0,1,1.1,1.18A1.17,1.17,0,0,1,86.22,66.55Z"/><path class="cls-1" d="M1.21,75.75A1.18,1.18,0,0,1,0,74.83a1.11,1.11,0,0,1,1-1.25l.89-.13A99.84,99.84,0,0,1,16,72.12a153.47,153.47,0,0,0,15.79-1c9.77-1,19.87-2,34.34,1,4.93,1,11.34.5,17.54,0l2.47-.2a1.18,1.18,0,0,1,1.32,1,1.13,1.13,0,0,1-1.1,1.18l-2.46.2c-6.39.53-13,1.08-18.31,0-14.07-2.95-23.52-2-33.52-1A155.7,155.7,0,0,1,16,74.3,96.34,96.34,0,0,0,2.3,75.61l-.89.13Z"/><path class="cls-1" d="M1.21,50.1A1.19,1.19,0,0,1,0,49.21a1.1,1.1,0,0,1,1-1.27c2.43-.41,24-4,30.92-4,5.05,0,9.63.24,14.47.5,1.88.1,3.78.2,5.76.29,2.19.09,5.09.44,8.45.85,7.35.9,16.49,2,24.16,1.11a6.37,6.37,0,0,0,1.12-.2,1.25,1.25,0,0,1,1.51.73,1.08,1.08,0,0,1-.81,1.36,8.92,8.92,0,0,1-1.54.28c-8,.93-17.28-.21-24.77-1.12-3.3-.4-6.15-.75-8.24-.83s-3.9-.19-5.79-.29c-4.81-.25-9.35-.49-14.33-.49-5.47,0-21.73,2.47-30.47,3.93Z"/><path class="cls-1" d="M1.21,57.7a1.09,1.09,0,1,1,0-2.18l1.84,0a65.77,65.77,0,0,0,9.29-.58l1.8-.3a114.6,114.6,0,0,1,19.11-2.1c13.77,0,40.54.88,53.12,2a1.13,1.13,0,0,1,1.09,1.19,1.19,1.19,0,0,1-1.33,1c-12.52-1.08-39.17-2-52.89-2a112.48,112.48,0,0,0-18.66,2.07l-1.81.3a67.76,67.76,0,0,1-9.68.61l-1.82,0Z"/></g></g></svg>