<svg xmlns="http://www.w3.org/2000/svg" viewBox="0 0 82.44 82.44"><defs><style>.cls-1{fill:#3e4651;}.cls-2{fill:#4d4d4d;}</style></defs><title>Ресурс 6</title><g id="Слой_2" data-name="Слой 2"><g id="Слой_1-2" data-name="Слой 1"><path class="cls-1" d="M41.22,82.44A41.22,41.22,0,1,1,82.44,41.22,41.27,41.27,0,0,1,41.22,82.44Zm0-81A39.82,39.82,0,1,0,81,41.22,39.87,39.87,0,0,0,41.22,1.4Z"/><path class="cls-2" d="M61.85,42.9h-40A1.75,1.75,0,0,1,20,41.25V23.88a1.75,1.75,0,0,1,1.83-1.64h40a1.75,1.75,0,0,1,1.83,1.64V41.25A1.75,1.75,0,0,1,61.85,42.9Zm-40-19.57a.59.59,0,0,0-.62.56V41.25a.59.59,0,0,0,.62.56h40a.59.59,0,0,0,.62-.56V23.88a.59.59,0,0,0-.62-.56Z"/><path class="cls-2" d="M34.61,36.33c-2.06,0-5-1.13-7.78-2.22-2.38-.92-4.84-1.88-6.26-1.91a.58.58,0,0,1-.59-.56.58.58,0,0,1,.62-.53c1.66,0,4.12,1,6.72,2,3,1.16,6.36,2.47,8,2.06a26.16,26.16,0,0,0,2.93-1c2.2-.87,4.69-1.84,6.76-1.66a11.49,11.49,0,0,1,3.27.83,9.72,9.72,0,0,0,3.1.75c1.59.1,4.81-1.44,7.65-2.8,1.36-.65,2.65-1.27,3.81-1.74a.64.64,0,0,1,.8.27.52.52,0,0,1-.3.72c-1.13.46-2.4,1.07-3.74,1.71-3.13,1.49-6.36,3-8.31,2.92a11,11,0,0,1-3.49-.83,10.24,10.24,0,0,0-2.92-.75c-1.75-.16-4.08.76-6.15,1.57a27,27,0,0,1-3.1,1.08A4.19,4.19,0,0,1,34.61,36.33Z"/><path class="cls-2" d="M51.64,29.37a28.66,28.66,0,0,1-8-1.55,33.34,33.34,0,0,0-6.43-1.44,19.2,19.2,0,0,0-7.7,1.2A24.5,24.5,0,0,1,23,28.89c-.57,0-1.46.06-2.45.07h0a.55.55,0,1,1,0-1.09c1,0,1.85,0,2.41-.07a23.12,23.12,0,0,0,6.09-1.26,20.65,20.65,0,0,1,8.21-1.25A34.33,34.33,0,0,1,44,26.79c2.87.85,5.58,1.64,8.43,1.48A14.88,14.88,0,0,0,57,27c.53-.2,1.05-.41,1.58-.58A14,14,0,0,1,62,25.7c.34,0,.7,0,1,0a.55.55,0,1,1,0,1.09c-.32,0-.64,0-.95,0a12.52,12.52,0,0,0-3.16.69c-.51.17-1,.37-1.53.57a15.91,15.91,0,0,1-5,1.3Z"/><path class="cls-2" d="M35.38,41.26a11.86,11.86,0,0,1-3.2-.45c-.85-.23-1.63-.52-2.4-.81a13.27,13.27,0,0,0-5.44-1.14,19.47,19.47,0,0,0-3.61.61.62.62,0,0,1-.74-.39.54.54,0,0,1,.43-.67,20.59,20.59,0,0,1,3.86-.64,14.55,14.55,0,0,1,6,1.22c.74.27,1.5.55,2.29.77a11,11,0,0,0,8.58-1.21c2.74-1.48,5.66-1,8.49-.49a16.13,16.13,0,0,0,5.94.3,8.5,8.5,0,0,0,4.31-2.17l.14-.13a5.49,5.49,0,0,1,3-1.69.61.61,0,0,1,.71.44.55.55,0,0,1-.49.63,4.36,4.36,0,0,0-2.31,1.37l-.14.13a9.83,9.83,0,0,1-4.92,2.48,17.38,17.38,0,0,1-6.44-.3c-2.72-.47-5.3-.91-7.64.35A13.16,13.16,0,0,1,35.38,41.26Z"/><path class="cls-2" d="M34.58,32.31a3.33,3.33,0,0,1-.55,0,23.45,23.45,0,0,1-4.08-1.14.55.55,0,0,1-.36-.48.54.54,0,0,1,.33-.5c.14-.07,3.67-1.68,6-1.49a5.76,5.76,0,0,1,1.86.37,5.79,5.79,0,0,0,1.95.34.59.59,0,0,1,.54.4.52.52,0,0,1-.25.59C39.87,30.43,36.75,32.31,34.58,32.31Zm-2.82-1.73a19.55,19.55,0,0,0,2.49.61,7.49,7.49,0,0,0,3.63-1,4.8,4.8,0,0,1-.59-.19,4.55,4.55,0,0,0-1.5-.29A10.73,10.73,0,0,0,31.76,30.58Z"/><path class="cls-2" d="M49.31,24.8a19.12,19.12,0,0,1-7.12-1.53.52.52,0,0,1-.3-.72.64.64,0,0,1,.81-.27c2.7,1.11,6.71,2.14,10.48.78.75-.28,1.53-.54,2.3-.8a.63.63,0,0,1,.78.32.53.53,0,0,1-.36.7c-.76.25-1.52.51-2.26.79A12.67,12.67,0,0,1,49.31,24.8Z"/><path class="cls-2" d="M61.85,62.47h-40A1.75,1.75,0,0,1,20,60.82V43.45a1.75,1.75,0,0,1,1.83-1.64h40a1.75,1.75,0,0,1,1.83,1.64V60.82A1.75,1.75,0,0,1,61.85,62.47ZM21.8,42.9a.59.59,0,0,0-.62.55V60.82a.59.59,0,0,0,.62.56h40a.59.59,0,0,0,.62-.56V43.45a.59.59,0,0,0-.62-.55Z"/><path class="cls-2" d="M63.08,55.51H63c-2.56-.2-5.21-.61-7.77-1-4.39-.68-8.93-1.38-13.08-1-1.54.13-3.07.2-4.55.27-2,.09-4,.19-6,.41l-2.22.24a69.52,69.52,0,0,1-7.74.58c-.34,0-.7,0-1,0a.59.59,0,0,1-.64-.51.57.57,0,0,1,.57-.58c.36,0,.75,0,1.11,0a68.42,68.42,0,0,0,7.59-.57L31.47,53c2.07-.23,4.12-.32,6.1-.42,1.47-.07,3-.14,4.5-.27,4.32-.34,8.93.37,13.4,1.06,2.54.39,5.16.8,7.67,1a.57.57,0,0,1,.55.59A.59.59,0,0,1,63.08,55.51Z"/><path class="cls-2" d="M20.58,60.1a.59.59,0,0,1-.6-.46.56.56,0,0,1,.5-.62l.45-.06a49.92,49.92,0,0,1,7-.67,76.74,76.74,0,0,0,7.9-.5A50.72,50.72,0,0,1,53,58.31c2.47.52,5.67.25,8.77,0L63,58.2a.59.59,0,0,1,.66.49.57.57,0,0,1-.55.59l-1.23.1c-3.19.27-6.5.54-9.16,0-7-1.47-11.76-1-16.76-.5a77.85,77.85,0,0,1-8,.51,48.17,48.17,0,0,0-6.84.65l-.45.06Z"/><path class="cls-2" d="M20.58,47.28a.59.59,0,0,1-.6-.45.55.55,0,0,1,.49-.64c1.22-.2,12-2,15.46-2,2.53,0,4.81.12,7.24.25l2.88.14c1.09,0,2.55.22,4.23.43,3.67.45,8.24,1,12.08.56a3.19,3.19,0,0,0,.56-.1.62.62,0,0,1,.76.36.54.54,0,0,1-.41.68,4.46,4.46,0,0,1-.77.14c-4,.46-8.64-.1-12.38-.56-1.65-.2-3.08-.38-4.12-.42l-2.89-.14c-2.4-.13-4.67-.25-7.16-.25-2.73,0-10.86,1.24-15.24,2Z"/><path class="cls-2" d="M20.58,51.08a.55.55,0,1,1,0-1.09l.92,0a32.88,32.88,0,0,0,4.64-.29l.9-.15a57.3,57.3,0,0,1,9.56-1.05c6.89,0,20.27.44,26.56,1a.56.56,0,0,1,.55.59.6.6,0,0,1-.66.49c-6.26-.54-19.58-1-26.44-1a56.24,56.24,0,0,0-9.33,1l-.9.15a33.88,33.88,0,0,1-4.84.31l-.91,0Z"/></g></g></svg>