<?xml version="1.0" encoding="iso-8859-1"?>
<!-- Generator: Adobe Illustrator 16.0.0, SVG Export Plug-In . SVG Version: 6.00 Build 0)  -->
<!DOCTYPE svg PUBLIC "-//W3C//DTD SVG 1.1//EN" "http://www.w3.org/Graphics/SVG/1.1/DTD/svg11.dtd">
<svg version="1.1" xmlns="http://www.w3.org/2000/svg" xmlns:xlink="http://www.w3.org/1999/xlink" x="0px" y="0px"
	 width="57.692px" height="53.692px" viewBox="0 0 57.692 53.692" style="enable-background:new 0 0 57.692 53.692;"
	 xml:space="preserve">
<g id="_x34_3_x5F_box">
	<g>
		
			<polyline style="fill:none;stroke:#44444D;stroke-width:3.6922;stroke-linecap:round;stroke-linejoin:round;stroke-miterlimit:10;" points="
			55.847,7.516 55.847,51.847 1.846,51.847 1.846,1.846 55.847,1.846 		"/>
		<g>
			
				<line style="fill:none;stroke:#44444D;stroke-width:3.6922;stroke-linecap:round;stroke-linejoin:round;stroke-miterlimit:10;" x1="17.802" y1="26.846" x2="39.673" y2="26.846"/>
			
				<line style="fill:none;stroke:#44444D;stroke-width:3.6922;stroke-linecap:round;stroke-linejoin:round;stroke-miterlimit:10;" x1="17.802" y1="14.102" x2="39.673" y2="14.102"/>
			
				<line style="fill:none;stroke:#44444D;stroke-width:3.6922;stroke-linecap:round;stroke-linejoin:round;stroke-miterlimit:10;" x1="17.802" y1="39.591" x2="39.673" y2="39.591"/>
		</g>
		<g>
			
				<line style="fill:none;stroke:#44444D;stroke-width:3.6922;stroke-linecap:round;stroke-linejoin:round;stroke-miterlimit:10;" x1="13.589" y1="51.847" x2="13.589" y2="1.846"/>
			
				<line style="fill:none;stroke:#44444D;stroke-width:3.6922;stroke-linecap:round;stroke-linejoin:round;stroke-miterlimit:10;" x1="43.884" y1="51.847" x2="43.884" y2="1.846"/>
		</g>
		<g>
			<g>
				<path style="fill:#44444D;" d="M52.407,45.257c0,1.377-1.123,2.496-2.501,2.496c-1.38,0-2.499-1.119-2.499-2.496
					c0-1.385,1.119-2.504,2.499-2.504C51.284,42.753,52.407,43.872,52.407,45.257z"/>
			</g>
			<g>
				<path style="fill:#44444D;" d="M52.407,8.444c0,1.377-1.123,2.496-2.501,2.496c-1.38,0-2.499-1.119-2.499-2.496
					c0-1.385,1.119-2.504,2.499-2.504C51.284,5.94,52.407,7.059,52.407,8.444z"/>
			</g>
			<g>
				<path style="fill:#44444D;" d="M10.286,45.257c0,1.377-1.123,2.496-2.501,2.496c-1.379,0-2.499-1.119-2.499-2.496
					c0-1.385,1.119-2.504,2.499-2.504C9.163,42.753,10.286,43.872,10.286,45.257z"/>
			</g>
			<g>
				<path style="fill:#44444D;" d="M10.286,8.444c0,1.377-1.123,2.496-2.501,2.496c-1.379,0-2.499-1.119-2.499-2.496
					c0-1.385,1.119-2.504,2.499-2.504C9.163,5.94,10.286,7.059,10.286,8.444z"/>
			</g>
		</g>
	</g>
</g>
<g id="Layer_1">
</g>
</svg>
