<?xml version="1.0"?>
<svg width="82.44" height="82.44" xmlns="http://www.w3.org/2000/svg" xmlns:svg="http://www.w3.org/2000/svg">
 <defs>
  <style>.cls-1{fill:#3e4651;}.cls-2{fill:#4d4d4d;}</style>
 </defs>
 <title>Ресурс 5</title>
 <g class="layer">
  <title>Layer 1</title>
  <g id="svg_114">
   <path d="m40.89335,1.656195c-21.642299,0 -39.248474,17.75062 -39.248474,39.570478c0,21.819858 17.606175,39.571472 39.248474,39.571472c21.642299,0 39.24946,-17.751614 39.24946,-39.571472c0,-21.819858 -17.607161,-39.570478 -39.24946,-39.570478zm0,80.533143c-22.402214,0 -40.629332,-18.375663 -40.629332,-40.962664c0,-22.587001 18.227117,-40.962664 40.629332,-40.962664c22.4032,0 40.629332,18.375663 40.629332,40.962664c0,22.587001 -18.226132,40.962664 -40.629332,40.962664" fill="#393f4d" fill-rule="nonzero" id="svg_113"/>
   <path d="m21.155273,44.774214c-0.201067,0 -0.404105,0.028818 -0.603201,0.086453l-4.474726,1.301759c-1.145293,0.33488 -1.944633,1.416035 -1.944633,2.627366c0,0.194767 0.01577,0.376616 0.046324,0.51176c0.258233,1.301759 1.382828,2.235845 2.677936,2.235845l6.447943,0l-0.002957,-4.591928c0,-0.68864 -0.313428,-1.320639 -0.859463,-1.734022c-0.379465,-0.287182 -0.828909,-0.437232 -1.287223,-0.437232zm2.83465,8.154374l-7.13295,0c-1.950547,0 -3.644832,-1.404111 -4.028239,-3.338862c-0.048296,-0.220603 -0.076879,-0.501823 -0.076879,-0.799936c0,-1.82743 1.210344,-3.457113 2.942083,-3.963904l4.475712,-1.301759c1.073343,-0.315006 2.205823,-0.104339 3.101754,0.575357c0.895931,0.678703 1.410426,1.716135 1.411411,2.844988l0.002957,5.285537c0,0.291157 -0.176426,0.540578 -0.42776,0.643923c-0.081807,0.035774 -0.17347,0.054654 -0.268089,0.054654" fill="#393f4d" fill-rule="nonzero" id="svg_112"/>
   <path d="m28.705142,35.058723c-2.216665,0 -4.019369,1.813519 -4.019369,4.042407l0,1.505469c0,0.309043 -0.203038,0.582313 -0.498725,0.667772l-8.77204,2.5588c-2.172312,0.633986 -3.689185,2.671089 -3.689185,4.954632c0,0.386553 0.034497,0.72342 0.106447,1.029482c0.481969,2.407756 2.591202,4.138797 5.020761,4.138797l24.833745,0c0.794412,0 1.480405,-0.542565 1.668659,-1.321633l2.621756,-10.897011c0.391292,-1.619745 0.029569,-3.300107 -0.990551,-4.610809c-1.024062,-1.313683 -2.562619,-2.067908 -4.21945,-2.067908l-12.062048,0zm12.981634,20.289546l-24.833745,0c-3.084013,0 -5.761949,-2.201065 -6.368107,-5.233864c-0.091663,-0.389534 -0.138973,-0.830741 -0.138973,-1.326601c0,-2.899642 1.926892,-5.486266 4.685649,-6.29117l8.274301,-2.412725l0,-0.982778c0,-2.996032 2.421675,-5.4336 5.39924,-5.4336l12.062048,0c2.083606,0 4.017397,0.947998 5.303635,2.600536c1.285252,1.647569 1.739624,3.761188 1.246812,5.798291l-2.621756,10.896017c-0.338069,1.405104 -1.57601,2.385895 -3.009106,2.385895" fill="#393f4d" fill-rule="nonzero" id="svg_111"/>
   <path d="m41.029366,52.928588l-17.034514,0c-0.381436,0 -0.689936,-0.311031 -0.689936,-0.695596c0,-0.384565 0.3085,-0.695596 0.689936,-0.695596l17.034514,0c0.38045,0 0.689936,0.311031 0.689936,0.695596c0,0.384565 -0.309485,0.695596 -0.689936,0.695596" fill="#393f4d" fill-rule="nonzero" id="svg_110"/>
   <path d="m46.457189,43.62648l-0.059137,-0.694602l0.010842,-0.695596c0.379465,0 0.706691,0.309043 0.709648,0.691621c0.001971,0.382578 -0.282874,0.694602 -0.661353,0.698577" fill="#393f4d" fill-rule="nonzero" id="svg_109"/>
   <path d="m67.080355,43.469474c-0.379465,0 -0.687965,-0.310037 -0.689936,-0.692615c-0.001971,-0.384565 0.305543,-0.697584 0.685993,-0.699571l0.099548,0c0.404105,-0.043723 0.691907,0.30805 0.693878,0.692615c0.001971,0.383572 -0.305543,0.69659 -0.686979,0.698577l-0.099548,0.000994c-0.000986,0 -0.001971,0 -0.002957,0zm-1.594737,0.011925c-0.378479,0 -0.685993,-0.307056 -0.689936,-0.68864c-0.002957,-0.384565 0.302586,-0.698577 0.683036,-0.702552l0.099548,-0.000994c0.002957,0 0.004928,0 0.006899,0c0.378479,0 0.686979,0.307056 0.689936,0.68864c0.003942,0.384565 -0.3016,0.699571 -0.683036,0.702552l-0.099548,0.000994c-0.001971,0 -0.004928,0 -0.006899,0zm-1.594737,0.012918c-0.378479,0 -0.685993,-0.307056 -0.689936,-0.689634c-0.003942,-0.383572 0.3016,-0.698577 0.683036,-0.702552l0.099548,-0.000994c0.002957,0 0.004928,0 0.006899,0c0.378479,0 0.685993,0.307056 0.689936,0.689634c0.003942,0.383572 -0.3016,0.698577 -0.683036,0.702552l-0.099548,0.000994c-0.002957,0 -0.004928,0 -0.006899,0zm-1.594737,0.011925c-0.378479,0 -0.685993,-0.307056 -0.689936,-0.68864c-0.003942,-0.384565 0.3016,-0.699571 0.683036,-0.703546l0.099548,-0.000994c0.002957,0 0.004928,0 0.006899,0c0.378479,0 0.685993,0.30805 0.689936,0.689634c0.003942,0.384565 -0.302586,0.698577 -0.683036,0.702552l-0.099548,0.000994c-0.002957,0 -0.004928,0 -0.006899,0zm-1.594737,0.011925c-0.38045,0 -0.68895,-0.309043 -0.690921,-0.692615c-0.000986,-0.383572 0.306529,-0.69659 0.686979,-0.698577l0.099548,-0.000994c0.000986,0 0.002957,0 0.003942,0c0.379465,0 0.687965,0.310037 0.689936,0.692615c0.000986,0.384565 -0.305543,0.697584 -0.686979,0.699571l-0.099548,0c-0.000986,0 -0.001971,0 -0.002957,0zm-1.594737,0.011925c-0.38045,0 -0.68895,-0.309043 -0.690921,-0.692615c-0.000986,-0.383572 0.305543,-0.69659 0.686979,-0.698577l0.100533,-0.000994c0.000986,0 0.001971,0 0.002957,0c0.379465,0 0.687965,0.310037 0.689936,0.692615c0.001971,0.384565 -0.305543,0.697584 -0.686979,0.699571l-0.099548,0c-0.000986,0 -0.002957,0 -0.002957,0zm-1.594737,0.012918c-0.378479,0 -0.685993,-0.307056 -0.689936,-0.68864c-0.003942,-0.384565 0.3016,-0.699571 0.683036,-0.702552l0.099548,-0.000994c0.002957,0 0.004928,0 0.006899,0c0.378479,0 0.685993,0.307056 0.689936,0.68864c0.003942,0.384565 -0.302586,0.698577 -0.683036,0.702552l-0.099548,0.000994c-0.002957,0 -0.004928,0 -0.006899,0zm11.258766,0.00795c-0.043367,0 -0.086735,-0.004969 -0.130102,-0.012918c-0.375522,-0.066578 -0.670223,-0.435244 -0.604187,-0.813848c0.066037,-0.378603 0.379465,-0.638955 0.754987,-0.572376l0.108418,0.019874c0.373551,0.072541 0.618971,0.437232 0.548006,0.813848c-0.06308,0.332892 -0.352853,0.56542 -0.677123,0.56542zm-12.853503,0.003975c-0.378479,0 -0.686979,-0.307056 -0.690921,-0.68864c-0.002957,-0.384565 0.302586,-0.698577 0.684022,-0.702552l0.099548,-0.000994c0.001971,0 0.004928,0 0.006899,0c0.378479,0 0.685993,0.307056 0.689936,0.68864c0.002957,0.384565 -0.302586,0.698577 -0.683036,0.702552l-0.099548,0.000994c-0.002957,0 -0.004928,0 -0.006899,0zm-1.594737,0.011925c-0.38045,0 -0.68895,-0.309043 -0.690921,-0.691621c-0.000986,-0.384565 0.305543,-0.697584 0.686979,-0.699571l0.099548,0c0.000986,0 0.002957,0 0.003942,0c0.379465,0 0.687965,0.309043 0.689936,0.691621c0.000986,0.384565 -0.305543,0.697584 -0.686979,0.699571l-0.099548,0c-0.000986,0 -0.002957,0 -0.002957,0zm-1.595723,0.012918c-0.379465,0 -0.687965,-0.310037 -0.689936,-0.692615c-0.000986,-0.384565 0.305543,-0.697584 0.686979,-0.699571l0.099548,0c0.000986,0 0.001971,0 0.002957,0c0.38045,0 0.68895,0.309043 0.690921,0.691621c0.000986,0.384565 -0.305543,0.697584 -0.686979,0.699571l-0.099548,0.000994c-0.000986,0 -0.002957,0 -0.003942,0zm-1.593752,0.011925c-0.378479,0 -0.686979,-0.307056 -0.690921,-0.68864c-0.002957,-0.384565 0.302586,-0.698577 0.684022,-0.702552l0.099548,-0.000994c0.001971,0 0.004928,0 0.006899,0c0.378479,0 0.685993,0.307056 0.689936,0.68864c0.002957,0.384565 -0.302586,0.698577 -0.683036,0.702552l-0.099548,0.000994c-0.002957,0 -0.004928,0 -0.006899,0zm-1.594737,0.011925c-0.378479,0 -0.686979,-0.307056 -0.690921,-0.68864c-0.002957,-0.384565 0.302586,-0.698577 0.684022,-0.702552l0.099548,-0.000994c0.001971,0 0.004928,0 0.006899,0c0.377493,0 0.685993,0.307056 0.689936,0.68864c0.002957,0.384565 -0.302586,0.699571 -0.684022,0.703546l-0.099548,0c-0.001971,0 -0.004928,0 -0.005914,0zm-1.595723,0.012918c-0.377493,0 -0.685993,-0.307056 -0.689936,-0.689634c-0.002957,-0.383572 0.302586,-0.698577 0.684022,-0.702552l0.099548,-0.000994c0.001971,0 0.003942,0 0.005914,0c0.378479,0 0.686979,0.307056 0.690921,0.689634c0.002957,0.383572 -0.302586,0.698577 -0.684022,0.702552l-0.099548,0.000994c-0.001971,0 -0.004928,0 -0.006899,0zm22.314494,0.490892c-0.118275,0 -0.237535,-0.029811 -0.346939,-0.094402c-0.334126,-0.18483 -0.491826,-0.629018 -0.3085,-0.965885c0.184311,-0.33488 0.567719,-0.477974 0.901845,-0.294138l0.101519,0.058629c0.329198,0.19278 0.440573,0.619081 0.248377,0.950979c-0.128131,0.221597 -0.358767,0.344817 -0.596302,0.344817zm1.229071,1.01557c-0.188254,0 -0.376508,-0.077509 -0.512524,-0.229547c-0.258233,-0.282213 -0.272032,-0.757206 0.007885,-1.017558c0.280902,-0.260352 0.687965,-0.275257 0.944226,0.005962l0.072936,0.079497c0.254291,0.285194 0.231621,0.725407 -0.051252,0.982778c-0.131088,0.120239 -0.296672,0.178868 -0.461271,0.178868zm0.852563,1.35045c-0.269075,0 -0.524351,-0.158993 -0.635727,-0.425307c-0.154743,-0.350779 -0.01577,-0.801923 0.33314,-0.957935c0.346939,-0.155019 0.738231,-0.037761 0.892974,0.313018l0.045339,0.104339c0.147843,0.35376 -0.016756,0.762175 -0.367637,0.911231c-0.08772,0.037761 -0.178398,0.054654 -0.268089,0.054654zm0.368623,1.556148c-0.356795,0 -0.660367,-0.279232 -0.686979,-0.644917c-0.032526,-0.383572 0.244434,-0.765156 0.623899,-0.798942c0.374537,-0.028818 0.710634,0.204704 0.743159,0.587282l0.009856,0.109308c0.027597,0.382578 -0.258233,0.716464 -0.637698,0.745282c-0.017741,0.000994 -0.034497,0.001987 -0.052238,0.001987zm-0.133059,1.594903c-0.05618,0 -0.113347,-0.006956 -0.170513,-0.021862c-0.368623,-0.094402 -0.592359,-0.473005 -0.498725,-0.845646c0.088706,-0.373635 0.467185,-0.649886 0.841722,-0.558464c0.370594,0.08844 0.6101,0.420339 0.521394,0.793973l-0.025626,0.107321c-0.07885,0.315006 -0.359752,0.524678 -0.668252,0.524678zm-0.638683,1.464727c-0.130102,0 -0.26119,-0.036767 -0.378479,-0.114277c-0.318356,-0.209673 -0.407062,-0.640942 -0.19811,-0.962904c0.205009,-0.322955 0.656425,-0.455119 0.976752,-0.250415c0.321313,0.206691 0.440573,0.598213 0.235564,0.922162l-0.058152,0.091421c-0.133059,0.20371 -0.352853,0.314012 -0.577575,0.314012zm-1.073343,1.180526c-0.203038,0 -0.40312,-0.089434 -0.540121,-0.262339c-0.237535,-0.3001 -0.188254,-0.738326 0.11039,-0.976816c0.295687,-0.243459 0.765829,-0.226566 1.006321,0.06956c0.240492,0.298113 0.232607,0.707521 -0.06308,0.949986l-0.083778,0.067572c-0.127145,0.102352 -0.278931,0.152037 -0.429731,0.152037zm-1.388742,0.774099c-0.283859,0 -0.549977,-0.177874 -0.650511,-0.463068c-0.127145,-0.362704 0.061109,-0.759194 0.420861,-0.887382c0.356795,-0.136138 0.794412,0.031799 0.928456,0.391521c0.134045,0.359723 -0.005914,0.745282 -0.363695,0.880426l-0.105462,0.038755c-0.075893,0.02683 -0.152771,0.039748 -0.22965,0.039748zm-1.561226,0.286188c-0.376508,0 -0.685008,-0.305069 -0.689936,-0.685659c-0.005914,-0.384565 0.298644,-0.700565 0.679094,-0.705533c0.37158,-0.021862 0.743159,0.279232 0.758929,0.662804c0.016756,0.383572 -0.238521,0.707521 -0.619957,0.724414l-0.118275,0.002981c-0.003942,0.000994 -0.006899,0.000994 -0.009856,0.000994zm-1.595723,0.012918c-0.378479,0 -0.685993,-0.307056 -0.689936,-0.68864c-0.003942,-0.384565 0.3016,-0.698577 0.683036,-0.702552l0.099548,-0.000994c0.002957,0 0.004928,0 0.006899,0c0.378479,0 0.685993,0.307056 0.689936,0.68864c0.003942,0.384565 -0.3016,0.698577 -0.683036,0.702552l-0.099548,0.000994c-0.002957,0 -0.004928,0 -0.006899,0zm-1.594737,0.012918c-0.378479,0 -0.686979,-0.307056 -0.689936,-0.68864c-0.003942,-0.384565 0.3016,-0.698577 0.683036,-0.702552l0.099548,-0.000994c0.001971,0 0.004928,0 0.006899,0c0.378479,0 0.685993,0.307056 0.689936,0.68864c0.002957,0.384565 -0.302586,0.699571 -0.683036,0.702552l-0.099548,0.000994c-0.002957,0 -0.004928,0 -0.006899,0zm-1.594737,0.013912c-0.378479,0 -0.686979,-0.307056 -0.690921,-0.689634c-0.002957,-0.383572 0.302586,-0.698577 0.684022,-0.702552l0.099548,-0.000994c0.001971,0 0.004928,0 0.006899,0c0.377493,0 0.685993,0.307056 0.689936,0.689634c0.002957,0.383572 -0.302586,0.698577 -0.683036,0.702552l-0.100533,0.000994c-0.001971,0 -0.003942,0 -0.005914,0zm-1.594737,0.011925c-0.379465,0 -0.687965,-0.309043 -0.689936,-0.691621c-0.001971,-0.384565 0.305543,-0.697584 0.686979,-0.699571l0.099548,-0.000994c0.000986,0 0.001971,0 0.002957,0c0.379465,0 0.687965,0.310037 0.689936,0.692615c0.001971,0.384565 -0.305543,0.697584 -0.686979,0.699571l-0.099548,0c-0.000986,0 -0.001971,0 -0.002957,0zm-1.594737,0.013912c-0.379465,0 -0.687965,-0.310037 -0.689936,-0.692615c-0.001971,-0.384565 0.305543,-0.697584 0.685993,-0.699571l0.099548,0c0.000986,0 0.002957,0 0.003942,0c0.379465,0 0.687965,0.309043 0.689936,0.691621c0.001971,0.384565 -0.305543,0.697584 -0.686979,0.699571l-0.099548,0.000994c-0.000986,0 -0.001971,0 -0.002957,0zm-1.594737,0.012918c-0.378479,0 -0.686979,-0.307056 -0.690921,-0.689634c-0.002957,-0.383572 0.302586,-0.698577 0.684022,-0.702552l0.099548,-0.000994c0.001971,0 0.004928,0 0.006899,0c0.377493,0 0.685993,0.307056 0.689936,0.689634c0.002957,0.383572 -0.302586,0.698577 -0.683036,0.702552l-0.100533,0.000994c-0.001971,0 -0.003942,0 -0.005914,0zm-1.595723,0.012918c-0.377493,0 -0.685993,-0.307056 -0.689936,-0.68864c-0.002957,-0.384565 0.302586,-0.699571 0.684022,-0.703546l0.099548,0c0.001971,0 0.004928,0 0.006899,0c0.377493,0 0.685993,0.307056 0.689936,0.68864c0.002957,0.384565 -0.302586,0.698577 -0.684022,0.702552l-0.099548,0.000994c-0.001971,0 -0.004928,0 -0.006899,0zm-1.593752,0.012918c-0.378479,0 -0.686979,-0.307056 -0.689936,-0.68864c-0.003942,-0.384565 0.3016,-0.698577 0.683036,-0.702552l0.099548,-0.000994c0.001971,0 0.004928,0 0.006899,0c0.378479,0 0.685993,0.307056 0.689936,0.68864c0.002957,0.384565 -0.302586,0.698577 -0.683036,0.702552l-0.099548,0.000994c-0.002957,0 -0.004928,0 -0.006899,0zm-1.594737,0.012918c-0.378479,0 -0.686979,-0.307056 -0.690921,-0.68864c-0.002957,-0.384565 0.302586,-0.698577 0.684022,-0.702552l0.099548,-0.000994c0.001971,0 0.004928,0 0.006899,0c0.377493,0 0.685993,0.307056 0.689936,0.68864c0.002957,0.384565 -0.302586,0.698577 -0.683036,0.702552l-0.100533,0.000994c-0.001971,0 -0.003942,0 -0.005914,0zm-1.595723,0.012918c-0.377493,0 -0.685993,-0.307056 -0.689936,-0.68864c-0.002957,-0.384565 0.302586,-0.698577 0.684022,-0.702552l0.099548,-0.000994c0.001971,0 0.004928,0 0.006899,0c0.377493,0 0.685993,0.307056 0.689936,0.68864c0.002957,0.384565 -0.302586,0.699571 -0.684022,0.702552l-0.099548,0.000994c-0.001971,0 -0.004928,0 -0.006899,0zm-1.594737,0.012918c-0.379465,0 -0.687965,-0.309043 -0.689936,-0.692615c-0.000986,-0.383572 0.305543,-0.69659 0.686979,-0.698577l0.099548,-0.000994c0.000986,0 0.001971,0 0.002957,0c0.38045,0 0.68895,0.310037 0.690921,0.692615c0.000986,0.384565 -0.306529,0.697584 -0.686979,0.699571l-0.099548,0c-0.000986,0 -0.002957,0 -0.003942,0zm-1.593752,0.012918c-0.38045,0 -0.68895,-0.309043 -0.690921,-0.691621c-0.000986,-0.384565 0.305543,-0.697584 0.686979,-0.699571l0.099548,-0.000994c0.000986,0 0.002957,0 0.003942,0c0.379465,0 0.687965,0.310037 0.689936,0.692615c0.000986,0.384565 -0.305543,0.697584 -0.686979,0.699571l-0.099548,0c-0.000986,0 -0.001971,0 -0.002957,0zm-1.595723,0.013912c-0.377493,0 -0.685993,-0.30805 -0.689936,-0.689634c-0.002957,-0.384565 0.302586,-0.698577 0.684022,-0.702552l0.099548,-0.000994c0.001971,0 0.004928,0 0.006899,0c0.377493,0 0.685993,0.307056 0.689936,0.68864c0.002957,0.384565 -0.302586,0.699571 -0.684022,0.703546l-0.099548,0.000994c-0.001971,0 -0.004928,0 -0.006899,0zm-1.594737,0.012918c-0.378479,0 -0.685993,-0.307056 -0.689936,-0.689634c-0.002957,-0.383572 0.302586,-0.698577 0.683036,-0.702552l0.100533,-0.000994c0.001971,0 0.003942,0 0.005914,0c0.378479,0 0.686979,0.307056 0.690921,0.689634c0.002957,0.383572 -0.302586,0.698577 -0.684022,0.702552l-0.099548,0.000994c-0.001971,0 -0.004928,0 -0.006899,0" fill="#393f4d" fill-rule="nonzero" id="svg_108"/>
   <path d="m44.012845,53.524813c-0.378479,0 -0.685993,-0.307056 -0.689936,-0.68864c-0.003942,-0.384565 0.3016,-0.698577 0.683036,-0.702552c0.002957,0 0.004928,0 0.006899,0c0.378479,0 0.710634,0.307056 0.714576,0.68864c0.003942,0.384565 -0.27696,0.698577 -0.658396,0.702552l-0.049281,0c-0.002957,0 -0.004928,0 -0.006899,0" fill="#393f4d" fill-rule="nonzero" id="svg_107"/>
   <path d="m44.104508,53.14621c-0.377493,0 -0.685993,-0.306062 -0.689936,-0.687646c-0.004928,-0.384565 0.300615,-0.698577 0.682051,-0.703546l23.744632,-0.286188c1.004349,-0.008943 1.942662,-0.407421 2.644425,-1.123885c0.706691,-0.721433 1.086156,-1.667443 1.070386,-2.66314c-0.008871,-2.072877 -1.684429,-3.747276 -3.738466,-3.747276c-0.004928,0 -0.010842,0 -0.01577,0l-21.482628,0.06161l-0.011827,-1.391192l0.009856,0l21.479672,-0.06161c0.006899,0 0.014784,0 0.021684,0c2.810995,0 5.105525,2.294474 5.117352,5.124556c0.021684,1.363368 -0.499711,2.664133 -1.468578,3.653867c-0.959996,0.980791 -2.242291,1.526337 -3.612307,1.538261l-23.742661,0.286188c-0.002957,0 -0.005914,0 -0.007885,0" fill="#393f4d" fill-rule="nonzero" id="svg_106"/>
   <path d="m46.275835,44.145196c-0.05618,0 -0.114332,-0.006956 -0.171498,-0.021862c-0.369608,-0.095396 -0.591374,-0.474993 -0.496754,-0.84664l3.258468,-12.785057l-0.988579,0l-3.247626,5.036116c-0.208952,0.320968 -0.634741,0.413383 -0.955068,0.20371c-0.319342,-0.209673 -0.410019,-0.640942 -0.202053,-0.962904l3.452636,-5.352116c0.127145,-0.196754 0.344968,-0.315999 0.57856,-0.315999l2.252147,0c0.212894,0 0.414947,0.099371 0.545049,0.269295c0.131088,0.169924 0.176426,0.391521 0.123203,0.599206l-3.480233,13.654553c-0.079835,0.313018 -0.360738,0.521697 -0.668252,0.521697" fill="#393f4d" fill-rule="nonzero" id="svg_105"/>
   <path d="m27.703749,52.928588c-0.058152,0 -0.117289,-0.006956 -0.176426,-0.022855c-0.368623,-0.097383 -0.588417,-0.477974 -0.491826,-0.849621l5.764906,-22.119958c0.47507,-1.867179 2.149643,-3.172912 4.071607,-3.172912l1.378886,0c1.304964,0 2.514323,0.595232 3.318591,1.632664c0.802297,1.036438 1.081228,2.360058 0.765829,3.632999c-0.092649,0.372641 -0.468171,0.598213 -0.836794,0.505798c-0.369608,-0.092415 -0.59433,-0.470024 -0.502667,-0.843659c0.211909,-0.853596 0.024641,-1.742965 -0.514495,-2.438561c-0.540121,-0.697584 -1.354245,-1.098048 -2.230464,-1.098048l-1.378886,0c-1.291166,0 -2.416746,0.876451 -2.735102,2.130512l-5.766877,22.124927c-0.081807,0.312025 -0.360738,0.518716 -0.666281,0.518716" fill="#393f4d" fill-rule="nonzero" id="svg_104"/>
  </g>
 </g>
</svg>