<?xml version="1.0"?>
<svg width="82.44" height="82.44" xmlns="http://www.w3.org/2000/svg" xmlns:svg="http://www.w3.org/2000/svg">
 <defs>
  <style>.cls-1{fill:#3e4651;}.cls-2{fill:#4d4d4d;}</style>
 </defs>
 <title>Ресурс 5</title>
 <g class="layer">
  <title>Layer 1</title>
  <g id="svg_35">
   <path d="m41.184759,2.097531c-21.819316,0 -39.570495,17.533952 -39.570495,39.087471c0,21.553519 17.75118,39.088452 39.570495,39.088452c21.818819,0 39.570396,-17.534933 39.570396,-39.088452c0,-21.553519 -17.751577,-39.087471 -39.570396,-39.087471zm0,79.550134c-22.586259,0 -40.962082,-18.151365 -40.962082,-40.462664c0,-22.311298 18.375824,-40.462664 40.962082,-40.462664c22.58596,0 40.962579,18.151365 40.962579,40.462664c0,22.311298 -18.376619,40.462664 -40.962579,40.462664" fill="#393f4d" fill-rule="nonzero" id="svg_34"/>
   <path d="m59.807022,52.560524c-1.614773,0 -2.928752,1.298629 -2.928752,2.893696c0,1.595066 1.313978,2.891733 2.928752,2.891733c1.614773,0 2.928354,-1.296666 2.928354,-2.891733c0,-1.595066 -1.313581,-2.893696 -2.928354,-2.893696zm0,7.160621c-2.381816,0 -4.320339,-1.91408 -4.320339,-4.266925c0,-2.352846 1.938523,-4.267907 4.320339,-4.267907c2.381816,0 4.319444,1.915061 4.319444,4.267907c0,2.352846 -1.937629,4.266925 -4.319444,4.266925" fill="#393f4d" fill-rule="nonzero" id="svg_33"/>
   <path d="m50.131598,52.560524c-1.614773,0 -2.928752,1.298629 -2.928752,2.893696c0,1.595066 1.313978,2.891733 2.928752,2.891733c1.614773,0 2.927957,-1.296666 2.927957,-2.891733c0,-1.595066 -1.313183,-2.893696 -2.927957,-2.893696zm0,7.160621c-2.381816,0 -4.320339,-1.91408 -4.320339,-4.266925c0,-2.352846 1.938523,-4.267907 4.320339,-4.267907c2.381716,0 4.319444,1.915061 4.319444,4.267907c0,2.352846 -1.937728,4.266925 -4.319444,4.266925" fill="#393f4d" fill-rule="nonzero" id="svg_32"/>
   <path d="m50.131598,56.341568c-0.496058,0 -0.899006,-0.398521 -0.899006,-0.887348c0,-0.489808 0.402948,-0.888329 0.899006,-0.888329c0.495263,0 0.898609,0.398521 0.898609,0.888329c0,0.488827 -0.403346,0.887348 -0.898609,0.887348" fill="#393f4d" fill-rule="nonzero" id="svg_31"/>
   <path d="m59.807022,56.341568c-0.495661,0 -0.899006,-0.398521 -0.899006,-0.887348c0,-0.489808 0.403346,-0.888329 0.899006,-0.888329c0.495263,0 0.898609,0.398521 0.898609,0.888329c0,0.488827 -0.403346,0.887348 -0.898609,0.887348" fill="#393f4d" fill-rule="nonzero" id="svg_30"/>
   <path d="m22.874123,52.561506c-1.614773,0 -2.928354,1.297648 -2.928354,2.892714c0,1.595066 1.313581,2.891733 2.928354,2.891733c1.614773,0 2.927957,-1.296666 2.927957,-2.891733c0,-1.595066 -1.313183,-2.892714 -2.927957,-2.892714zm0,7.15964c-2.382213,0 -4.319941,-1.91408 -4.319941,-4.266925c0,-2.352846 1.937728,-4.267907 4.319941,-4.267907c2.381816,0 4.319544,1.915061 4.319544,4.267907c0,2.352846 -1.937728,4.266925 -4.319544,4.266925" fill="#393f4d" fill-rule="nonzero" id="svg_29"/>
   <path d="m22.874123,56.341568c-0.495661,0 -0.898609,-0.398521 -0.898609,-0.887348c0,-0.489808 0.402948,-0.888329 0.898609,-0.888329c0.495661,0 0.899006,0.398521 0.899006,0.888329c0,0.488827 -0.403346,0.887348 -0.899006,0.887348" fill="#393f4d" fill-rule="nonzero" id="svg_28"/>
   <path d="m18.694691,56.132492c-0.051176,0 -0.103644,-0.004908 -0.156807,-0.017668l-6.295629,-1.431143c-0.781451,-0.176684 -1.327195,-0.853974 -1.327195,-1.646109l0,-6.417566c0,-0.821582 0.594733,-1.521448 1.414542,-1.663777l7.274629,-1.266237l1.964856,-5.114028c0.25111,-0.651769 0.893939,-1.090535 1.598874,-1.090535l7.627494,0c0.384266,0 0.695992,0.308216 0.695992,0.688087l0,13.931556c0,0.379871 -0.311726,0.688087 -0.695992,0.688087c-0.384266,0 -0.695595,-0.308216 -0.695595,-0.688087l0,-13.24445l-6.931899,0c-0.131567,0 -0.25111,0.081471 -0.29851,0.203187l-2.105068,5.479176c-0.086949,0.226745 -0.288374,0.390669 -0.529447,0.432876l-7.664361,1.333966c-0.153329,0.025521 -0.263929,0.157053 -0.263929,0.310179l0,6.417566c0,0.147237 0.101358,0.273861 0.247234,0.307234l6.296921,1.431143c0.373733,0.085397 0.60785,0.454471 0.521299,0.823545c-0.074131,0.318032 -0.360219,0.532998 -0.67741,0.532998" fill="#393f4d" fill-rule="nonzero" id="svg_27"/>
   <path d="m46.506854,56.136418l-2.629447,0c-0.383869,0 -0.695595,-0.307234 -0.695595,-0.687106l0,-1.329058l-4.888938,0c-0.384266,0 -0.695595,-0.308216 -0.695595,-0.688087c0,-0.37889 0.311328,-0.687106 0.695595,-0.687106l5.584532,0c0.384266,0 0.695992,0.308216 0.695992,0.687106l0,1.33004l1.933455,0c0.384266,0 0.695992,0.307234 0.695992,0.687106c0,0.379871 -0.311726,0.687106 -0.695992,0.687106" fill="#393f4d" fill-rule="nonzero" id="svg_26"/>
   <path d="m66.261942,56.136418l-2.629348,0c-0.384565,0 -0.695595,-0.307234 -0.695595,-0.687106c0,-0.379871 0.31103,-0.687106 0.695595,-0.687106l1.933753,0l0,-4.847039c0,-0.379871 0.31103,-0.687106 0.695595,-0.687106c0.384565,0 0.695595,0.307234 0.695595,0.687106l0,5.534144c0,0.379871 -0.31103,0.687106 -0.695595,0.687106" fill="#393f4d" fill-rule="nonzero" id="svg_25"/>
   <path d="m65.720372,50.602274l-26.621702,0c-0.384266,0 -0.695595,-0.307234 -0.695595,-0.687106c0,-0.379871 0.311328,-0.687106 0.695595,-0.687106l26.621702,0c0.384565,0 0.696588,0.307234 0.696588,0.687106c0,0.379871 -0.312024,0.687106 -0.696588,0.687106" fill="#393f4d" fill-rule="nonzero" id="svg_24"/>
   <path d="m38.292874,56.136418c0,0 0,0 -0.000397,0l-11.794802,-0.003926c-0.383968,-0.000982 -0.695595,-0.308216 -0.695595,-0.688087c0.000795,-0.37889 0.312024,-0.686124 0.695992,-0.686124c0,0 0,0 0.000397,0l11.09881,0.003926l0,-2.366588c0,-0.379871 0.311328,-0.687106 0.695595,-0.687106c0.384266,0 0.695992,0.307234 0.695992,0.687106l0,3.053693c0,0.182574 -0.073733,0.357295 -0.204207,0.485882c-0.130374,0.129568 -0.307453,0.201224 -0.491785,0.201224" fill="#393f4d" fill-rule="nonzero" id="svg_23"/>
   <path d="m55.916064,56.136418l-1.893111,0c-0.384266,0 -0.695992,-0.307234 -0.695992,-0.687106c0,-0.379871 0.311726,-0.687106 0.695992,-0.687106l1.893111,0c0.384266,0 0.695992,0.307234 0.695992,0.687106c0,0.379871 -0.311726,0.687106 -0.695992,0.687106" fill="#393f4d" fill-rule="nonzero" id="svg_22"/>
   <path d="m26.569817,45.821001l-3.695695,0c-0.384266,0 -0.695992,-0.307234 -0.695992,-0.687106c0,-0.379871 0.311726,-0.687106 0.695992,-0.687106l3.695695,0c0.384366,0 0.695595,0.307234 0.695595,0.687106c0,0.379871 -0.311229,0.687106 -0.695595,0.687106" fill="#393f4d" fill-rule="nonzero" id="svg_21"/>
   <path d="m14.117877,48.698991l-2.231567,0c-0.384266,0 -0.695595,-0.308216 -0.695595,-0.687106c0,-0.379871 0.311328,-0.688087 0.695595,-0.688087l2.231567,0c0.384266,0 0.695992,0.308216 0.695992,0.688087c0,0.37889 -0.311726,0.687106 -0.695992,0.687106" fill="#393f4d" fill-rule="nonzero" id="svg_20"/>
   <path d="m14.117877,52.238566l-2.231567,0c-0.384266,0 -0.695595,-0.307234 -0.695595,-0.687106c0,-0.379871 0.311328,-0.687106 0.695595,-0.687106l2.231567,0c0.384266,0 0.695992,0.307234 0.695992,0.687106c0,0.379871 -0.311726,0.687106 -0.695992,0.687106" fill="#393f4d" fill-rule="nonzero" id="svg_19"/>
   <path d="m37.226626,35.312212c-0.477476,0 -0.881617,0.376926 -0.881915,0.823545c0.001093,0.482937 0.405234,0.859864 0.881915,0.859864l29.967413,0c0.475986,0 0.880424,-0.376926 0.881418,-0.824527c-0.000994,-0.480974 -0.404439,-0.858882 -0.881418,-0.858882l-29.967413,0zm29.967413,3.058601l-29.967413,0c-1.250381,0 -2.269626,-0.985506 -2.273502,-2.195793c0.002683,-1.251514 1.022027,-2.237019 2.273502,-2.237019l29.967413,0c1.250083,0 2.269626,0.985506 2.272607,2.194811c-0.003975,1.252495 -1.022524,2.238001 -2.272607,2.238001" fill="#393f4d" fill-rule="nonzero" id="svg_18"/>
   <path d="m38.270019,38.370813c-0.476681,0 -0.880822,0.376926 -0.881219,0.823545c0.001192,0.489808 0.396787,0.859864 0.881517,0.859864l27.879337,0c0.484929,0 0.880424,-0.370055 0.881418,-0.824527c0,-0.481955 -0.404439,-0.858882 -0.881418,-0.858882l-27.879635,0zm27.879635,3.05762l-27.879337,0c-1.250282,0 -2.269924,-0.984524 -2.273104,-2.195793c0.002782,-1.251514 1.022127,-2.237019 2.272806,-2.237019l27.879635,0c1.251077,0 2.27062,0.985506 2.273601,2.196775c-0.003975,1.251514 -1.023518,2.236038 -2.273601,2.236038" fill="#393f4d" fill-rule="nonzero" id="svg_17"/>
   <path d="m37.226626,41.428433c-0.477476,0 -0.881617,0.376926 -0.881915,0.823545c0.001093,0.482937 0.405234,0.859864 0.881915,0.859864l29.967413,0c0.475986,0 0.880424,-0.376926 0.881418,-0.824527c-0.000994,-0.481955 -0.404439,-0.858882 -0.881418,-0.858882l-29.967413,0zm29.967413,3.058601l-29.967413,0c-1.250381,0 -2.269626,-0.985506 -2.273502,-2.195793c0.002683,-1.252495 1.022027,-2.237019 2.273502,-2.237019l29.967413,0c1.250083,0 2.269626,0.984524 2.272607,2.194811c-0.003975,1.252495 -1.022524,2.238001 -2.272607,2.238001" fill="#393f4d" fill-rule="nonzero" id="svg_16"/>
   <path d="m38.270019,44.487034c-0.476681,0 -0.880822,0.376926 -0.881219,0.823545c0.001192,0.489808 0.396787,0.859864 0.881517,0.859864l27.879337,0c0.475986,0 0.880424,-0.377908 0.881418,-0.824527c0,-0.489808 -0.395495,-0.858882 -0.881418,-0.858882l-27.879635,0zm27.879635,3.05762l-27.879337,0c-1.250282,0 -2.269924,-0.984524 -2.273104,-2.195793c0.002782,-1.251514 1.022127,-2.237019 2.272806,-2.237019l27.879635,0c1.251077,0 2.27062,0.985506 2.273601,2.196775c-0.003975,1.251514 -1.023518,2.236038 -2.273601,2.236038" fill="#393f4d" fill-rule="nonzero" id="svg_15"/>
   <path d="m37.226626,47.544654c-0.477476,0 -0.881617,0.376926 -0.881915,0.823545c0.001093,0.489808 0.397085,0.859864 0.881915,0.859864l29.967413,0c0.484929,0 0.880424,-0.370055 0.881418,-0.824527c-0.000994,-0.481955 -0.404439,-0.858882 -0.881418,-0.858882l-29.967413,0zm29.967413,3.05762l-29.967413,0c-1.250381,0 -2.269626,-0.984524 -2.273502,-2.194811c0.002683,-1.252495 1.022027,-2.237019 2.273502,-2.237019l29.967413,0c1.250083,0 2.269626,0.984524 2.272607,2.194811c-0.003975,1.252495 -1.022524,2.237019 -2.272607,2.237019" fill="#393f4d" fill-rule="nonzero" id="svg_14"/>
   <path d="m63.769726,50.183139c-0.384565,0 -0.695595,-0.308216 -0.695595,-0.687106l0,-15.961462c0,-0.37889 0.31103,-0.687106 0.695595,-0.687106c0.384565,0 0.695595,0.308216 0.695595,0.687106l0,15.961462c0,0.37889 -0.31103,0.687106 -0.695595,0.687106" fill="#393f4d" fill-rule="nonzero" id="svg_13"/>
   <path d="m52.210234,50.183139c-0.384366,0 -0.695992,-0.308216 -0.695992,-0.687106l0,-14.744303c0,-0.379871 0.311626,-0.687106 0.695992,-0.687106c0.384266,0 0.695595,0.307234 0.695595,0.687106l0,14.744303c0,0.37889 -0.311328,0.687106 -0.695595,0.687106" fill="#393f4d" fill-rule="nonzero" id="svg_12"/>
   <path d="m40.650642,50.183139c-0.384366,0 -0.695992,-0.308216 -0.695992,-0.687106l0,-15.961462c0,-0.37889 0.311626,-0.687106 0.695992,-0.687106c0.384266,0 0.695595,0.308216 0.695595,0.687106l0,15.961462c0,0.37889 -0.311328,0.687106 -0.695595,0.687106" fill="#393f4d" fill-rule="nonzero" id="svg_11"/>
   <path d="m38.292874,55.295204c-0.384266,0 -0.695595,-0.307234 -0.695595,-0.687106l0,-2.503027c0,-0.37889 0.311328,-0.687106 0.695595,-0.687106c0.384266,0 0.695992,0.308216 0.695992,0.687106l0,2.503027c0,0.379871 -0.311726,0.687106 -0.695992,0.687106" fill="#393f4d" fill-rule="nonzero" id="svg_10"/>
   <path d="m27.141199,50.602274c-0.384266,0 -0.695595,-0.307234 -0.695595,-0.687106l0,-7.64454c0,-0.379871 0.311328,-0.687106 0.695595,-0.687106c0.384366,0 0.695992,0.307234 0.695992,0.687106l0,7.64454c0,0.379871 -0.311626,0.687106 -0.695992,0.687106" fill="#393f4d" fill-rule="nonzero" id="svg_9"/>
   <path d="m49.879693,29.218568c-0.176681,0 -0.353263,-0.066747 -0.489102,-0.199261l-0.876946,-0.855937c-0.799536,-0.76465 -1.260716,-1.843406 -1.260716,-2.952591c0,-0.243432 0.02365,-0.474103 0.060517,-0.704774c0.217423,-1.188693 0.929712,-2.211498 1.956807,-2.823022l1.450116,-0.866735c0.329215,-0.196316 0.756608,-0.091287 0.955747,0.232634c0.198344,0.324903 0.092713,0.746982 -0.235608,0.944279l-1.451408,0.865753c-0.685459,0.408337 -1.160649,1.091516 -1.30424,1.875798c-0.022458,0.145274 -0.040344,0.306253 -0.040344,0.476066c0,0.739129 0.307055,1.457645 0.841968,1.97003l0.882213,0.860845c0.273269,0.26699 0.275654,0.702811 0.005863,0.972745c-0.136237,0.135458 -0.315601,0.204169 -0.494866,0.204169" fill="#393f4d" fill-rule="nonzero" id="svg_8"/>
   <path d="m54.473599,29.218568c-0.180457,0 -0.361411,-0.069692 -0.497251,-0.207113c-0.268996,-0.271897 -0.263531,-0.706737 0.010831,-0.971764l0.886983,-0.855937c0.53839,-0.515329 0.845446,-1.233845 0.845446,-1.972974c0,-0.169813 -0.017887,-0.329811 -0.043425,-0.49079c-0.14051,-0.763669 -0.616496,-1.44783 -1.303942,-1.862056l-1.573535,-0.936427c-0.328818,-0.196316 -0.435144,-0.618395 -0.2368,-0.943298c0.199139,-0.324903 0.626135,-0.427969 0.954853,-0.233616l1.576317,0.93839c1.029878,0.620358 1.740974,1.642182 1.954422,2.807317c0.040046,0.245395 0.063697,0.477048 0.063697,0.720479c0,1.109185 -0.461875,2.18794 -1.266976,2.957499l-0.8842,0.853974c-0.135542,0.13055 -0.311328,0.196316 -0.486419,0.196316" fill="#393f4d" fill-rule="nonzero" id="svg_7"/>
   <path d="m36.472006,46.015353l-3.240875,0c-0.384266,0 -0.695595,-0.307234 -0.695595,-0.687106l0,-17.768549c0,-0.284658 -0.234018,-0.515329 -0.521994,-0.515329c-0.288473,0 -0.522094,0.230671 -0.522094,0.515329l0,10.613817c0,0.37889 -0.311726,0.687106 -0.695992,0.687106c-0.384266,0 -0.695595,-0.308216 -0.695595,-0.687106l0,-10.613817c0,-1.042437 0.858165,-1.890522 1.91368,-1.890522c1.055018,0 1.913184,0.848085 1.913184,1.890522l0,17.081444l2.54528,0c0.384266,0 0.695595,0.307234 0.695595,0.687106c0,0.379871 -0.311328,0.687106 -0.695595,0.687106" fill="#393f4d" fill-rule="nonzero" id="svg_6"/>
   <path d="m33.227652,28.274288c-0.178172,0 -0.355548,-0.066747 -0.491388,-0.201224c-0.271679,-0.267971 -0.272077,-0.702811 -0.000397,-0.971764l11.233557,-11.10657c0.207287,-0.204169 0.207287,-0.525145 0,-0.730295c-0.146373,-0.138403 -0.288374,-0.159997 -0.392415,-0.150182c-0.032991,0.010797 -0.102451,0.016687 -0.137032,0.022576c-0.034184,0.006871 0.011229,-0.004908 0.067175,-0.038282c-0.153329,0.071655 -0.224379,0.119753 -0.29851,0.187482l-11.639188,11.508036c-0.106029,0.105029 -0.161477,0.228708 -0.161477,0.36024c0,0.056932 0.007751,0.089324 0.010831,0.098158c0.010931,0.025521 0.019775,0.053005 0.027228,0.081471c0.029116,0.075582 0.045412,0.157053 0.045412,0.243432c0,0.37889 -0.311726,0.687106 -0.695992,0.687106c-0.284598,0 -0.547334,-0.174721 -0.653263,-0.435821c-0.015999,-0.039263 -0.028023,-0.079508 -0.035773,-0.120734c-0.059722,-0.166868 -0.09003,-0.352387 -0.09003,-0.553611c0,-0.496679 0.202219,-0.968819 0.568996,-1.332003l11.661347,-11.529631c0.21315,-0.19239 0.416164,-0.324903 0.626135,-0.413245c0.066777,-0.047116 0.196356,-0.073618 0.291454,-0.090305c0.116065,-0.031411 0.239185,-0.048097 0.368069,-0.048097c0.488705,-0.033374 0.995992,0.1492 1.378768,0.511403c0.78791,0.778392 0.78791,1.977882 0.042233,2.714067l-11.233557,11.10657c-0.13584,0.133495 -0.314011,0.201224 -0.492183,0.201224" fill="#393f4d" fill-rule="nonzero" id="svg_5"/>
   <path d="m43.803276,15.136831l-0.010036,0c-0.384366,0 -0.695595,-0.308216 -0.695595,-0.687106c0,-0.379871 0.311229,-0.688087 0.695595,-0.688087c0.384266,0 0.700563,0.308216 0.700563,0.688087c0,0.37889 -0.30626,0.687106 -0.690527,0.687106" fill="#393f4d" fill-rule="nonzero" id="svg_4"/>
   <path d="m52.166709,22.533031c-0.322955,0 -0.65058,-0.079508 -0.949487,-0.247358l-7.826136,-4.49956c-0.331898,-0.190426 -0.444485,-0.611524 -0.251607,-0.939371c0.192978,-0.327847 0.619179,-0.439748 0.951077,-0.24834l7.822261,4.497597c0.227559,0.126624 0.525273,0.067729 0.668069,-0.141347c0.02365,-0.035337 0.050878,-0.068711 0.081186,-0.09914c0.005366,-0.028466 0.029414,-0.114845 0.029414,-0.208095c0,-0.182574 -0.101259,-0.355332 -0.265121,-0.451526l-8.220538,-4.719433c-0.052368,-0.030429 -0.100166,-0.066747 -0.142895,-0.107974c-0.271679,-0.268953 -0.276747,-0.7087 -0.004571,-0.976671c0.245247,-0.244413 0.625638,-0.270916 0.896622,-0.0746l8.175921,4.694894c0.589666,0.345516 0.95217,0.970782 0.95217,1.635311c0,0.337663 -0.087645,0.65864 -0.261246,0.953114c-0.037562,0.058895 -0.070951,0.110918 -0.117556,0.164905c-0.360219,0.496679 -0.941736,0.767595 -1.537562,0.767595" fill="#393f4d" fill-rule="nonzero" id="svg_3"/>
   <path d="m52.181913,23.319276c-0.666578,0 -1.208844,0.534961 -1.208844,1.1936c0,0.65864 0.542266,1.1936 1.208844,1.1936c0.666777,0 1.208745,-0.534961 1.208745,-1.1936c0,-0.65864 -0.541968,-1.1936 -1.208745,-1.1936zm0,3.762394c-1.433521,0 -2.600332,-1.152374 -2.600332,-2.568793c0,-1.416419 1.16681,-2.568793 2.600332,-2.568793c1.433819,0 2.600232,1.152374 2.600232,2.568793c0,1.416419 -1.166413,2.568793 -2.600232,2.568793" fill="#393f4d" fill-rule="nonzero" id="svg_2"/>
   <path d="m52.181913,27.081669c-0.666578,0 -1.208844,0.534961 -1.208844,1.1936c0,0.65864 0.542266,1.1936 1.208844,1.1936c0.666777,0 1.208745,-0.534961 1.208745,-1.1936c0,-0.65864 -0.541968,-1.1936 -1.208745,-1.1936zm0,3.762394c-1.433521,0 -2.600332,-1.152374 -2.600332,-2.568793c0,-1.416419 1.16681,-2.568793 2.600332,-2.568793c1.433819,0 2.600232,1.152374 2.600232,2.568793c0,1.416419 -1.166413,2.568793 -2.600232,2.568793" fill="#393f4d" fill-rule="nonzero" id="svg_1"/>
  </g>
 </g>
</svg>