<?xml version="1.0"?>
<svg width="82.44" height="82.44" xmlns="http://www.w3.org/2000/svg" xmlns:svg="http://www.w3.org/2000/svg">
 <defs>
  <style>.cls-1{fill:#3e4651;}.cls-2{fill:#4d4d4d;}</style>
 </defs>
 <title>Ресурс 5</title>
 <g class="layer">
  <title>Layer 1</title>
  <g id="svg_98">
   <path d="m41.226432,2.943242c-21.464203,0 -38.92648,17.173801 -38.92648,38.282463c0,21.109624 17.462277,38.283425 38.92648,38.283425c21.463714,0 38.926382,-17.173801 38.926382,-38.283425c0,-21.108663 -17.462668,-38.282463 -38.926382,-38.282463zm0,77.912759c-22.218664,0 -40.295418,-17.778499 -40.295418,-39.630295c0,-21.850835 18.076754,-39.628373 40.295418,-39.628373c22.218371,0 40.295907,17.777537 40.295907,39.628373c0,21.851797 -18.077536,39.630295 -40.295907,39.630295" fill="#393f4d" fill-rule="nonzero" id="svg_97"/>
   <path d="m41.222913,67.475741c-0.489158,0 -0.93853,-0.166316 -1.338342,-0.497025c-1.405205,-1.162289 -2.25175,-4.5261 -2.829863,-11.246032c-0.089347,-1.03635 -1.11957,-2.472627 -2.116654,-3.859875c-0.069796,-0.098059 -0.140081,-0.196118 -0.209192,-0.293216c-0.483488,3.770468 -1.6404,6.179646 -3.542779,10.140464c-0.514769,1.071921 -1.085258,2.259205 -1.713422,3.62338c-0.617801,1.335334 -1.56513,2.013096 -2.534648,1.822746c-0.943223,-0.187466 -1.575198,-1.159405 -1.610292,-2.475511c-0.03089,-1.019046 0.522785,-2.843714 1.289074,-5.369216c1.026802,-3.383039 2.304145,-7.59285 2.558793,-11.28641c0.004985,-0.110557 -0.016814,-0.388391 -0.042327,-0.778705c-0.068818,-1.038273 -0.18407,-2.776418 -0.105769,-4.410737c0.297464,-6.217139 1.684682,-9.416557 3.002398,-11.725753c1.327002,-2.327461 4.109455,-4.3992 5.441736,-4.803934c0.361688,-0.108634 0.744294,0.089407 0.856124,0.445111c0.111146,0.354743 -0.091204,0.731598 -0.452109,0.841193c-0.967954,0.294177 -3.469464,2.102502 -4.652475,4.175202c-1.239024,2.173643 -2.544619,5.194248 -2.82869,11.130669c-0.074879,1.559332 0.03744,3.250371 0.104205,4.260764c0.038222,0.572973 0.05308,0.812352 0.042034,0.961364c-0.265009,3.839687 -1.566303,8.129291 -2.612655,11.576742c-0.674694,2.221711 -1.257011,4.141555 -1.232573,4.946216c0.021799,0.799855 0.327278,1.157482 0.514769,1.194014c0.187882,0.038455 0.62396,-0.212461 1.016049,-1.060384c0.630803,-1.369943 1.204713,-2.563957 1.722122,-3.641646c2.101405,-4.375166 3.26252,-6.792996 3.580218,-11.353705c-0.185145,-0.313405 -0.347416,-0.619118 -0.478405,-0.920986c-0.148976,-0.341284 0.012219,-0.737366 0.359733,-0.883493c0.349371,-0.147089 0.749866,0.012498 0.89806,0.353782c0.353965,0.812352 1.062677,1.799673 1.748515,2.755268c1.101583,1.535298 2.241094,3.122509 2.361331,4.523216c0.515845,5.99218 1.305888,9.46751 2.348037,10.329853c0.169895,0.139398 0.337542,0.195157 0.529237,0.177852c0.366184,-0.031725 0.507438,-0.149011 0.589551,-0.248032c0.546442,-0.656611 0.284853,-2.960039 0.031281,-5.18848c-0.244775,-2.158261 -0.327181,-3.146543 -0.452109,-4.643387c-0.048486,-0.586432 -0.103814,-1.252657 -0.178302,-2.098657c-0.135584,-1.539143 -1.009988,-3.709902 -2.67336,-6.635332c-0.97597,-1.716034 -0.818685,-3.55993 -0.746836,-4.084834c0.10616,-0.783511 1.607164,-6.792034 2.256735,-7.933173c0.100393,-0.176891 0.276838,-0.299945 0.479969,-0.334555c0.201176,-0.03557 0.41164,0.022111 0.566676,0.155741c1.169228,1.001741 5.321402,4.29345 9.654224,4.560709c0.278402,0.033648 0.625524,-0.223998 0.685056,-0.487411c0.077518,-0.34513 -0.407436,-0.773898 -1.236385,-1.093071c-3.293117,-1.269961 -7.053885,-5.430743 -8.517938,-7.160237c-0.241353,-0.285525 -0.20235,-0.709486 0.088174,-0.947905c0.289839,-0.238418 0.721322,-0.199964 0.963849,0.086523c1.396407,1.650661 4.967828,5.612441 7.964947,6.768c2.215092,0.853691 2.188014,2.128459 2.073447,2.637982c-0.204305,0.907527 -1.161213,1.594902 -2.106977,1.539143c-4.076708,-0.251877 -7.926823,-2.868709 -9.736434,-4.289605c-0.641849,1.863123 -1.690059,6.024866 -1.779014,6.676671c-0.040861,0.299945 -0.204305,1.8612 0.584565,3.248448c1.760343,3.096552 2.690174,5.444203 2.842473,7.17658c0.074879,0.848884 0.130208,1.516071 0.179475,2.105386c0.123756,1.484346 0.205478,2.465898 0.448297,4.603971c0.369312,3.254216 0.536471,5.14618 -0.332557,6.190221c-0.359733,0.431652 -0.874111,0.679684 -1.528961,0.735443c-0.064517,0.005768 -0.128252,0.008652 -0.192085,0.008652" fill="#393f4d" fill-rule="nonzero" id="svg_96"/>
   <path d="m37.79431,24.317241c0.14663,1.694884 1.070693,2.947541 2.510307,3.317666l0.183288,0.050952c0.110364,0.022111 0.260806,0.038455 0.40206,0.038455c0.444876,0 0.83892,-0.160548 1.206668,-0.491257c0.519266,-0.477798 0.932079,-1.308416 1.127194,-2.272664c0.03744,-0.187466 0.060314,-0.373009 0.069894,-0.557591c-0.726308,0.09133 -1.490739,0.075948 -2.316267,0.064411l-0.773229,-0.009614c-0.899722,-0.010575 -1.719091,-0.020189 -2.409915,-0.140359zm3.095655,4.752982c-0.237541,0 -0.483391,-0.025957 -0.731195,-0.078832l-0.213884,-0.057682c-2.262014,-0.581625 -3.621079,-2.637982 -3.533981,-5.362487c0.000391,-0.00673 0.006452,-0.10575 0.006843,-0.11248l0.007234,-0.102866c0.017205,-0.224959 0.148976,-0.426845 0.349468,-0.537402c0.201568,-0.109595 0.444387,-0.113441 0.648692,-0.008652c0.536862,0.27495 1.63473,0.287448 2.797116,0.301868l0.774696,0.009614c0.28065,0.002884 0.5526,0.00673 0.813406,0.00673c0.672446,0 1.424658,-0.022111 1.901597,-0.185543c0.193552,-0.066334 0.407045,-0.045184 0.581144,0.059605c0.174881,0.104789 0.292478,0.280718 0.321902,0.47972c0.08397,0.575857 0.067939,1.160366 -0.046531,1.739107c-0.253572,1.25458 -0.800796,2.319771 -1.540398,3.000416c-0.628163,0.56432 -1.344891,0.848884 -2.136107,0.848884" fill="#393f4d" fill-rule="nonzero" id="svg_95"/>
   <path d="m43.935569,24.250907c-0.280259,0 -0.542531,-0.171123 -0.643413,-0.445111c-0.128252,-0.348975 0.055426,-0.734482 0.410858,-0.861382c0.336076,-0.119209 0.507536,-0.265336 0.511348,-0.728714c0.013001,-0.939252 -0.347904,-1.824668 -1.01644,-2.4957c-0.668242,-0.671032 -1.562588,-1.047886 -2.517932,-1.060384c-1.976476,0.013459 -3.579827,1.535298 -3.606221,3.469562c-0.002248,0.412425 0.13402,0.568166 0.355138,0.68353c0.33373,0.174968 0.460125,0.582586 0.282214,0.910411c-0.1784,0.327825 -0.593852,0.45088 -0.925627,0.276873c-0.496392,-0.259568 -1.087116,-0.797932 -1.080273,-1.884273c0.037049,-2.678359 2.243734,-4.795282 4.9908,-4.802012c1.321137,0.017305 2.556447,0.537402 3.479728,1.464157c0.924845,0.929639 1.425147,2.155377 1.40716,3.452257c-0.007625,0.982514 -0.484173,1.648739 -1.414785,1.980409c-0.077127,0.026918 -0.155428,0.040377 -0.232555,0.040377" fill="#393f4d" fill-rule="nonzero" id="svg_94"/>
   <path d="m52.118213,41.352605l-3.918836,0.005768c-0.630118,0 -1.142542,0.505677 -1.14176,1.124796l0.006061,5.214437l5.418862,-0.007691c0.115349,0 0.21496,-0.076909 0.242135,-0.187466l1.013018,-4.127134c0.120628,-0.491257 0.007625,-1.00078 -0.310074,-1.397823c-0.31809,-0.397043 -0.795419,-0.624886 -1.309407,-0.624886zm-5.738027,7.691871c-0.180942,0 -0.355138,-0.07018 -0.482609,-0.196118c-0.129132,-0.1269 -0.201274,-0.297061 -0.201665,-0.475875l-0.007234,-5.887391c-0.000782,-1.362252 1.124164,-2.471666 2.508743,-2.473589l3.916979,-0.005768c0.940192,0 1.80922,0.415309 2.388507,1.139216c0.578896,0.722945 0.785058,1.651623 0.565112,2.546652l-1.013018,4.127134c-0.176054,0.716216 -0.821715,1.216125 -1.570506,1.217086l-6.103136,0.008652c-0.000391,0 -0.000391,0 -0.001173,0" fill="#393f4d" fill-rule="nonzero" id="svg_93"/>
   <path d="m62.586527,48.185979c-0.001955,0 -0.002933,0 -0.004888,0l-9.024985,-0.037493c-0.378012,-0.001923 -0.68271,-0.303791 -0.681537,-0.675839c0.001857,-0.371086 0.308119,-0.67007 0.684665,-0.67007c0.000684,0 0.001857,0 0.002639,0l9.023128,0.036532c0.000978,0 0.001955,0 0.001955,0c0.265889,0 0.506363,-0.096136 0.693072,-0.279757c0.193552,-0.185543 0.29717,-0.423961 0.29717,-0.678723c0.00391,-0.264375 -0.095798,-0.508561 -0.279575,-0.693143c-0.185731,-0.187466 -0.434025,-0.292255 -0.696982,-0.294177l-8.202488,-0.025957c-0.377719,-0.001923 -0.683199,-0.303791 -0.682025,-0.675839c0.001564,-0.371086 0.307434,-0.671032 0.684665,-0.671032c0.000391,0 0.001173,0 0.002248,0l8.206398,0.025957c0.63442,0.00673 1.22485,0.254761 1.666695,0.699873c0.43989,0.442227 0.677431,1.026736 0.669611,1.643932c-0.000978,0.61335 -0.251226,1.194014 -0.70578,1.627589c-0.436958,0.428768 -1.026411,0.668148 -1.653988,0.668148" fill="#393f4d" fill-rule="nonzero" id="svg_92"/>
   <path d="m45.690927,44.266499l-2.399162,0.688336c-0.6048,0.173045 -1.026411,0.72583 -1.025238,1.345909c0,0.097098 0.009971,0.192273 0.028642,0.279757c0.135975,0.651805 0.723571,1.121911 1.398362,1.121911c0.000782,0 0.001173,0 0.001466,0l2.343051,-0.002884c-0.204989,-0.115364 -0.343603,-0.333593 -0.343994,-0.582586l-0.003128,-2.850443zm-1.997395,4.781823c-1.322017,0 -2.473259,-0.921948 -2.737877,-2.192871c-0.037831,-0.173045 -0.057283,-0.360511 -0.058066,-0.551823c-0.001075,-1.216125 0.825918,-2.302466 2.011569,-2.640866l3.273664,-0.939252c0.205771,-0.059605 0.429919,-0.019227 0.601379,0.107673c0.172241,0.1269 0.274198,0.325902 0.274589,0.537402l0.004203,3.746434c0,0.249955 -0.137539,0.467223 -0.342528,0.583548l0.688086,-0.000961c0.000391,0 0.000391,0 0.000782,0c0.377621,0 0.684274,0.300907 0.684567,0.672955c0.000391,0.371086 -0.305773,0.672955 -0.683492,0.673916l-3.713847,0.003845c-0.001173,0 -0.001857,0 -0.00303,0" fill="#393f4d" fill-rule="nonzero" id="svg_91"/>
   <path d="m51.808237,44.867351c-0.057675,0 -0.116522,-0.007691 -0.174979,-0.023073c-0.365402,-0.095175 -0.583392,-0.462416 -0.486812,-0.821966l1.856533,-6.917012c0.070676,-0.262452 0.014565,-0.536441 -0.153864,-0.751786c-0.401278,-0.51433 -1.332281,-0.356666 -1.538443,0.259568l-0.238323,0.717177c-0.117206,0.35282 -0.50519,0.546055 -0.863358,0.42973c-0.35895,-0.115364 -0.555239,-0.495102 -0.437153,-0.848884l0.237834,-0.717177c0.304306,-0.912334 1.164243,-1.525684 2.13992,-1.525684c0.704118,0 1.353982,0.315327 1.784,0.864266c0.429137,0.547977 0.572346,1.246889 0.39248,1.916959l-1.856533,6.91605c-0.081331,0.301868 -0.358168,0.501832 -0.661302,0.501832" fill="#393f4d" fill-rule="nonzero" id="svg_90"/>
   <path d="m43.886008,44.705842c-0.484955,0 -0.962675,-0.193234 -1.327687,-0.566243c-1.949007,-1.99483 -3.127034,-3.717593 -3.502016,-5.119262c-0.095798,-0.35955 0.122974,-0.726791 0.488376,-0.821966c0.3655,-0.095175 0.738918,0.12017 0.835889,0.480682c0.309683,1.160366 1.404032,2.725466 3.164375,4.528023c0.253181,0.259568 0.518191,0.130745 0.619757,0.06345c0.080549,-0.053836 0.332264,-0.2538 0.177618,-0.596045c-1.27314,-2.816796 -2.543544,-5.310573 -2.556154,-5.335568c-0.169113,-0.332632 -0.033236,-0.736405 0.304697,-0.902721c0.338325,-0.166316 0.749573,-0.032686 0.918393,0.298984c0.013001,0.024995 1.298263,2.546652 2.583622,5.392289c0.372636,0.825811 0.099611,1.75545 -0.664821,2.260166c-0.323466,0.213423 -0.684665,0.318211 -1.042051,0.318211" fill="#393f4d" fill-rule="nonzero" id="svg_89"/>
   <path d="m41.226435,2.943239c-21.464206,0 -38.926481,17.173804 -38.926481,38.282468c0,21.109622 17.462275,38.283427 38.926481,38.283427c21.463708,0 38.926379,-17.173804 38.926379,-38.283427c0,-21.108663 -17.462671,-38.282468 -38.926379,-38.282468zm0,77.912765c-22.21867,0 -40.29542,-17.778504 -40.29542,-39.630297c0,-21.850834 18.07675,-39.628372 40.29542,-39.628372c22.218369,0 40.295904,17.777538 40.295904,39.628372c0,21.851793 -18.077535,39.630297 -40.295904,39.630297" fill="#393f4d" fill-rule="nonzero" id="svg_88"/>
   <path d="m41.226435,2.943239c-21.464206,0 -38.926481,17.173804 -38.926481,38.282468c0,21.109622 17.462275,38.283427 38.926481,38.283427c21.463708,0 38.926379,-17.173804 38.926379,-38.283427c0,-21.108663 -17.462671,-38.282468 -38.926379,-38.282468zm0,77.912765c-22.21867,0 -40.29542,-17.778504 -40.29542,-39.630297c0,-21.850834 18.07675,-39.628372 40.29542,-39.628372c22.218369,0 40.295904,17.777538 40.295904,39.628372c0,21.851793 -18.077535,39.630297 -40.295904,39.630297" fill="#393f4d" fill-rule="nonzero" id="svg_87"/>
   <path d="m41.222916,67.475739c-0.489158,0 -0.938535,-0.166311 -1.338344,-0.497023c-1.405208,-1.162289 -2.251747,-4.526098 -2.829866,-11.246031c-0.089342,-1.036355 -1.119565,-2.472632 -2.11665,-3.85988c-0.069796,-0.098059 -0.140083,-0.196118 -0.209197,-0.293211c-0.483483,3.770466 -1.640395,6.179641 -3.542774,10.140465c-0.514774,1.071916 -1.085261,2.259202 -1.713424,3.623378c-0.617804,1.335334 -1.56513,2.013096 -2.534648,1.822746c-0.94322,-0.187466 -1.575196,-1.159405 -1.610292,-2.475509c-0.030888,-1.01905 0.522788,-2.843714 1.289077,-5.369219c1.026799,-3.383039 2.304146,-7.592853 2.558791,-11.286408c0.004985,-0.110562 -0.016811,-0.388393 -0.042325,-0.778705c-0.068821,-1.038273 -0.184072,-2.776421 -0.105772,-4.410742c0.297461,-6.217134 1.684685,-9.416558 3.002398,-11.725749c1.327002,-2.327462 4.109455,-4.399198 5.441737,-4.803937c0.361685,-0.108629 0.744294,0.089407 0.856122,0.445116c0.111146,0.354743 -0.091204,0.731593 -0.452105,0.841188c-0.967957,0.294177 -3.469466,2.102502 -4.652478,4.175205c-1.239024,2.173639 -2.544619,5.194248 -2.828693,11.130667c-0.074877,1.559334 0.037442,3.250371 0.10421,4.260762c0.038219,0.572975 0.05308,0.812355 0.042032,0.961369c-0.265012,3.839684 -1.566303,8.129287 -2.612655,11.576742c-0.674696,2.221709 -1.257009,4.141555 -1.232573,4.946216c0.021797,0.799852 0.327278,1.15748 0.514767,1.194014c0.187884,0.038452 0.623962,-0.212464 1.016051,-1.060387c0.630803,-1.369943 1.204713,-2.563957 1.722119,-3.641648c2.101407,-4.375166 3.26252,-6.792994 3.580223,-11.353701c-0.18515,-0.313407 -0.347418,-0.619121 -0.47841,-0.920991c-0.148976,-0.341282 0.012222,-0.737361 0.359735,-0.883491c0.349368,-0.147089 0.749866,0.012495 0.898058,0.353784c0.353965,0.812348 1.06268,1.799673 1.74852,2.755266c1.101581,1.535295 2.241095,3.122512 2.361331,4.523214c0.515845,5.992183 1.305888,9.467512 2.348032,10.329856c0.1699,0.139395 0.337543,0.195159 0.529239,0.177855c0.366187,-0.031725 0.507435,-0.149014 0.589548,-0.248032c0.546446,-0.656614 0.284858,-2.960044 0.031284,-5.18848c-0.244777,-2.158266 -0.327183,-3.146543 -0.452112,-4.643387c-0.048483,-0.586437 -0.103814,-1.252662 -0.178302,-2.098659c-0.135582,-1.539146 -1.009988,-3.7099 -2.67336,-6.635335c-0.97597,-1.716034 -0.81868,-3.559927 -0.746831,-4.084832c0.10616,-0.783514 1.607161,-6.792035 2.256733,-7.933176c0.10039,-0.176889 0.276838,-0.299945 0.479972,-0.334555c0.201177,-0.035568 0.411635,0.022114 0.566674,0.155741c1.169228,1.001746 5.321405,4.293453 9.654222,4.560714c0.278399,0.033643 0.625524,-0.224 0.685056,-0.487411c0.077516,-0.345132 -0.407434,-0.773903 -1.236385,-1.093071c-3.293114,-1.269966 -7.053883,-5.430744 -8.517934,-7.160239c-0.241353,-0.285525 -0.20235,-0.709486 0.088169,-0.9479c0.289844,-0.238421 0.721325,-0.199968 0.963851,0.086523c1.39641,1.650659 4.967828,5.612434 7.964947,6.767996c2.21509,0.853691 2.188014,2.128459 2.073445,2.637984c-0.204307,0.907523 -1.161215,1.594902 -2.106979,1.539139c-4.076706,-0.251875 -7.926816,-2.868705 -9.73643,-4.289603c-0.641851,1.863123 -1.690059,6.024867 -1.779012,6.676671c-0.040866,0.299945 -0.204307,1.861198 0.584563,3.248446c1.760346,3.096555 2.690171,5.444205 2.842476,7.176585c0.074877,0.848882 0.130208,1.516066 0.179475,2.105387c0.123756,1.484341 0.205473,2.465898 0.448292,4.603969c0.369317,3.254214 0.536476,5.146178 -0.332557,6.190219c-0.359728,0.431655 -0.874106,0.679687 -1.528956,0.735443c-0.064517,0.005768 -0.128257,0.008652 -0.192085,0.008652" fill="#393f4d" fill-rule="nonzero" id="svg_86"/>
   <path d="m37.794308,24.317239c0.14663,1.694887 1.070693,2.947541 2.510307,3.317671l0.183288,0.050947c0.110368,0.022114 0.260811,0.038459 0.40206,0.038459c0.444876,0 0.838922,-0.16055 1.20667,-0.491262c0.519269,-0.477793 0.932076,-1.308411 1.127197,-2.272664c0.037435,-0.187466 0.060309,-0.373007 0.069891,-0.557589c-0.72631,0.091332 -1.490737,0.075945 -2.316265,0.064409l-0.773232,-0.009611c-0.899722,-0.010577 -1.719091,-0.020189 -2.409917,-0.140362zm3.095655,4.752982c-0.237541,0 -0.483388,-0.025957 -0.731193,-0.078829l-0.213882,-0.057682c-2.262019,-0.581627 -3.621082,-2.637984 -3.533984,-5.362484c0.000389,-0.006734 0.006452,-0.105752 0.00684,-0.11248l0.007236,-0.102868c0.017207,-0.224959 0.148976,-0.426845 0.349471,-0.5374c0.201565,-0.109595 0.444385,-0.113446 0.648692,-0.008652c0.536857,0.274948 1.634728,0.287443 2.797116,0.301863l0.774691,0.009618c0.28065,0.002884 0.552605,0.006727 0.813409,0.006727c0.672446,0 1.424658,-0.022114 1.901595,-0.185541c0.193552,-0.066334 0.407045,-0.045186 0.581146,0.0596c0.174878,0.104793 0.292476,0.280723 0.321904,0.479725c0.083968,0.575852 0.067934,1.160364 -0.046533,1.739107c-0.253575,1.25458 -0.800798,2.319768 -1.540401,3.000414c-0.628163,0.564323 -1.344891,0.848882 -2.136107,0.848882" fill="#393f4d" fill-rule="nonzero" id="svg_85"/>
   <path d="m43.935573,24.250905c-0.280261,0 -0.542531,-0.17112 -0.643413,-0.445109c-0.128257,-0.348975 0.055426,-0.734484 0.410858,-0.861384c0.336076,-0.119207 0.507531,-0.265336 0.511343,-0.728709c0.013006,-0.939255 -0.347902,-1.824671 -1.01644,-2.495705c-0.668237,-0.671027 -1.562586,-1.047884 -2.517932,-1.060379c-1.976471,0.013454 -3.579827,1.535295 -3.606221,3.469562c-0.002243,0.412425 0.13402,0.568166 0.355138,0.68353c0.33373,0.174963 0.460125,0.582586 0.282219,0.910407c-0.178405,0.327827 -0.593852,0.450884 -0.925632,0.276873c-0.496387,-0.259568 -1.087116,-0.797927 -1.080268,-1.884271c0.037046,-2.678362 2.243734,-4.795285 4.990798,-4.802012c1.321137,0.017305 2.556445,0.5374 3.47973,1.464159c0.92484,0.929636 1.425142,2.155375 1.407158,3.452257c-0.007625,0.982509 -0.484173,1.648734 -1.414783,1.980404c-0.077127,0.026923 -0.155428,0.040377 -0.232555,0.040377" fill="#393f4d" fill-rule="nonzero" id="svg_84"/>
   <path d="m52.118215,41.352607l-3.918836,0.005768c-0.630121,0 -1.142542,0.505675 -1.141765,1.124796l0.006063,5.214437l5.418862,-0.007693c0.115347,0 0.21496,-0.076912 0.242138,-0.187466l1.013016,-4.127134c0.120625,-0.491254 0.007625,-1.00078 -0.310071,-1.397825c-0.318092,-0.397038 -0.795424,-0.624882 -1.309407,-0.624882zm-5.738025,7.691871c-0.180942,0 -0.355138,-0.070184 -0.482611,-0.196118c-0.12913,-0.1269 -0.201272,-0.297061 -0.201668,-0.475875l-0.007229,-5.887396c-0.000784,-1.36225 1.124162,-2.471666 2.508739,-2.473584l3.916981,-0.005768c0.940192,0 1.809218,0.415309 2.388502,1.139216c0.578896,0.722941 0.785058,1.651618 0.565112,2.546653l-1.013016,4.127134c-0.176051,0.716214 -0.821715,1.21612 -1.570504,1.217086l-6.103134,0.008652c-0.000396,0 -0.000396,0 -0.001173,0" fill="#393f4d" fill-rule="nonzero" id="svg_83"/>
   <path d="m62.586527,48.185978c-0.001958,0 -0.002933,0 -0.00489,0l-9.024981,-0.037493c-0.378012,-0.001925 -0.68271,-0.303789 -0.681537,-0.675836c0.001855,-0.371089 0.308114,-0.670075 0.68466,-0.670075c0.000689,0 0.001862,0 0.002639,0l9.023133,0.036534c0.000975,0 0.00195,0 0.00195,0c0.265892,0 0.506365,-0.096134 0.693077,-0.279757c0.193552,-0.185541 0.297168,-0.423961 0.297168,-0.67872c0.003908,-0.264377 -0.095801,-0.508566 -0.279572,-0.693148c-0.185736,-0.187466 -0.434025,-0.292252 -0.696984,-0.294177l-8.202488,-0.025957c-0.377719,-0.001918 -0.683201,-0.303789 -0.682028,-0.675836c0.001569,-0.371089 0.307439,-0.671034 0.684667,-0.671034c0.000389,0 0.001173,0 0.002251,0l8.206396,0.025957c0.634417,0.006734 1.224853,0.254766 1.666693,0.699875c0.43989,0.442225 0.677431,1.026736 0.669616,1.643932c-0.000982,0.613352 -0.251229,1.194014 -0.705782,1.627586c-0.436958,0.428771 -1.026411,0.66815 -1.653988,0.66815" fill="#393f4d" fill-rule="nonzero" id="svg_82"/>
   <path d="m45.690926,44.266498l-2.399162,0.688339c-0.604798,0.173045 -1.026411,0.725825 -1.025238,1.345904c0,0.0971 0.009971,0.192275 0.028644,0.279757c0.135977,0.651805 0.723568,1.121911 1.39836,1.121911c0.000784,0 0.001173,0 0.001466,0l2.343054,-0.002884c-0.204989,-0.115364 -0.343606,-0.333588 -0.343994,-0.582586l-0.003131,-2.850441zm-1.997395,4.781823c-1.322017,0 -2.473254,-0.92195 -2.737877,-2.192868c-0.037831,-0.173045 -0.057281,-0.360511 -0.058066,-0.551828c-0.00107,-1.21612 0.825923,-2.302464 2.011574,-2.640861l3.273664,-0.939255c0.205766,-0.059607 0.429919,-0.01923 0.601374,0.10767c0.172239,0.1269 0.274198,0.325902 0.274587,0.537407l0.004208,3.746434c0,0.24995 -0.137539,0.467223 -0.342528,0.583545l0.688084,-0.000959c0.000389,0 0.000389,0 0.000784,0c0.377617,0 0.684271,0.300904 0.684565,0.672952c0.000389,0.371089 -0.305775,0.672952 -0.683494,0.673918l-3.71384,0.003843c-0.001173,0 -0.001862,0 -0.003035,0" fill="#393f4d" fill-rule="nonzero" id="svg_81"/>
   <path d="m51.808239,44.867348c-0.057677,0 -0.116527,-0.007686 -0.174981,-0.023073c-0.365402,-0.095175 -0.58339,-0.462414 -0.486812,-0.821966l1.856535,-6.91701c0.070676,-0.262452 0.01456,-0.536441 -0.153866,-0.751789c-0.401275,-0.514327 -1.332281,-0.356661 -1.538443,0.259568l-0.238325,0.71718c-0.117201,0.352818 -0.505185,0.546052 -0.863358,0.42973c-0.358951,-0.115364 -0.555237,-0.495105 -0.437148,-0.848882l0.237834,-0.71718c0.304301,-0.912332 1.164243,-1.525684 2.13992,-1.525684c0.704118,0 1.353982,0.315325 1.783997,0.864268c0.429135,0.547977 0.572349,1.246886 0.392477,1.916954l-1.856528,6.916051c-0.081336,0.301871 -0.358173,0.501832 -0.661302,0.501832" fill="#393f4d" fill-rule="nonzero" id="svg_80"/>
   <path d="m43.886012,44.705839c-0.484957,0 -0.962678,-0.193234 -1.327692,-0.566241c-1.949007,-1.994832 -3.127034,-3.717594 -3.502011,-5.119262c-0.095801,-0.359552 0.122971,-0.726791 0.488374,-0.821966c0.365498,-0.095175 0.73892,0.120173 0.835887,0.480684c0.309683,1.160364 1.404035,2.725466 3.16438,4.528023c0.253179,0.259568 0.518191,0.130743 0.619754,0.06345c0.080551,-0.053839 0.332264,-0.2538 0.17762,-0.596048c-1.273145,-2.816798 -2.543549,-5.310571 -2.556159,-5.335569c-0.169109,-0.332629 -0.033234,-0.736402 0.304697,-0.902721c0.338327,-0.166318 0.749573,-0.032684 0.918396,0.298987c0.012999,0.024991 1.298263,2.546653 2.583623,5.392284c0.372638,0.825816 0.099613,1.755453 -0.664821,2.260169c-0.323466,0.213423 -0.684667,0.318209 -1.042049,0.318209" fill="#393f4d" fill-rule="nonzero" id="svg_79"/>
   <path d="m41.226435,2.943239c-21.464206,0 -38.926481,17.173804 -38.926481,38.282468c0,21.109622 17.462275,38.283427 38.926481,38.283427c21.463708,0 38.926379,-17.173804 38.926379,-38.283427c0,-21.108663 -17.462671,-38.282468 -38.926379,-38.282468zm0,77.912765c-22.21867,0 -40.29542,-17.778504 -40.29542,-39.630297c0,-21.850834 18.07675,-39.628372 40.29542,-39.628372c22.218369,0 40.295904,17.777538 40.295904,39.628372c0,21.851793 -18.077535,39.630297 -40.295904,39.630297" fill="#393f4d" fill-rule="nonzero" id="svg_78"/>
  </g>
 </g>
</svg>