<?xml version="1.0" encoding="iso-8859-1"?>
<!-- Generator: Adobe Illustrator 16.0.0, SVG Export Plug-In . SVG Version: 6.00 Build 0)  -->
<!DOCTYPE svg PUBLIC "-//W3C//DTD SVG 1.1//EN" "http://www.w3.org/Graphics/SVG/1.1/DTD/svg11.dtd">
<svg version="1.1" xmlns="http://www.w3.org/2000/svg" xmlns:xlink="http://www.w3.org/1999/xlink" x="0px" y="0px"
	 width="57.692px" height="47.743px" viewBox="0 0 57.692 47.743" style="enable-background:new 0 0 57.692 47.743;"
	 xml:space="preserve">
<g id="_x32_8_x5F_wooden_x5F_log">
	<g>
		
			<ellipse style="fill:none;stroke:#44444D;stroke-width:3.6922;stroke-linecap:round;stroke-linejoin:round;stroke-miterlimit:10;" cx="13.804" cy="29.857" rx="11.958" ry="16.04"/>
		
			<path style="fill:none;stroke:#44444D;stroke-width:3.6922;stroke-linecap:round;stroke-linejoin:round;stroke-miterlimit:10;" d="
			M7.144,29.857c0-3.607,1.593-6.715,3.887-8.127"/>
		
			<path style="fill:none;stroke:#44444D;stroke-width:3.6922;stroke-linecap:round;stroke-linejoin:round;stroke-miterlimit:10;" d="
			M19.902,26.256c0.361,1.102,0.563,2.319,0.563,3.602c0,4.933-2.982,8.933-6.66,8.933"/>
		<path style="fill:#44444D;" d="M15.961,29.857c0,1.598-0.966,2.891-2.157,2.891c-1.191,0-2.157-1.293-2.157-2.891
			c0-1.6,0.965-2.894,2.157-2.894C14.995,26.964,15.961,28.258,15.961,29.857z"/>
		
			<path style="fill:none;stroke:#44444D;stroke-width:3.6922;stroke-linecap:round;stroke-linejoin:round;stroke-miterlimit:10;" d="
			M24.843,45.897h19.044c6.604,0,11.958-7.184,11.958-16.04c0-8.86-5.354-16.043-11.958-16.043H24.843"/>
		
			<path style="fill:none;stroke:#44444D;stroke-width:3.6922;stroke-linecap:round;stroke-linejoin:round;stroke-miterlimit:10;" d="
			M50.774,16.742c-8.434,1.176-16.391,3.009-22.52,3.15"/>
		
			<path style="fill:none;stroke:#44444D;stroke-width:3.6922;stroke-linecap:round;stroke-linejoin:round;stroke-miterlimit:10;" d="
			M54.354,22.096c0,0-23.401,0.071-23.401,8.014c0,7.942,23.33,7.677,23.33,7.677"/>
		
			<path style="fill:none;stroke:#44444D;stroke-width:3.6922;stroke-linecap:round;stroke-linejoin:round;stroke-miterlimit:10;" d="
			M50.509,29.888c0,2.817-10.976,3.318-11.215-0.061C39.056,26.448,50.509,27.073,50.509,29.888z"/>
		
			<path style="fill:none;stroke:#44444D;stroke-width:3.6922;stroke-linecap:round;stroke-linejoin:round;stroke-miterlimit:10;" d="
			M35.08,41.545c-4.425-0.77-8.602-2.03-10.743-4.094"/>
		
			<path style="fill:none;stroke:#44444D;stroke-width:3.6922;stroke-linecap:round;stroke-linejoin:round;stroke-miterlimit:10;" d="
			M27.955,13.814c0,0,3.845-4.102,7.415-10.628c1.482-2.711,6.205-0.943,4.994,2.042s-2.27,4.4-2.27,4.4"/>
		
			<line style="fill:none;stroke:#44444D;stroke-width:3.6922;stroke-linecap:round;stroke-linejoin:round;stroke-miterlimit:10;" x1="15.287" y1="24.276" x2="17.956" y2="14.808"/>
		
			<line style="fill:none;stroke:#44444D;stroke-width:3.6922;stroke-linecap:round;stroke-linejoin:round;stroke-miterlimit:10;" x1="11.033" y1="34.612" x2="4.783" y2="40.379"/>
	</g>
</g>
<g id="Layer_1">
</g>
</svg>
