<?xml version="1.0" encoding="iso-8859-1"?>
<!-- Generator: Adobe Illustrator 18.0.0, SVG Export Plug-In . SVG Version: 6.00 Build 0)  -->
<!DOCTYPE svg PUBLIC "-//W3C//DTD SVG 1.1//EN" "http://www.w3.org/Graphics/SVG/1.1/DTD/svg11.dtd">
<svg version="1.1" id="Capa_1" xmlns="http://www.w3.org/2000/svg" xmlns:xlink="http://www.w3.org/1999/xlink" x="0px" y="0px"
	 viewBox="0 0 258.306 258.306" style="enable-background:new 0 0 258.306 258.306;" xml:space="preserve">
<g>
	<path d="M256.844,133.538l-36.102-36.104c-0.009-0.009-0.018-0.018-0.027-0.026l-36.082-36.085c-0.01-0.009-0.02-0.019-0.029-0.029
		L132.685,9.372c-0.936-0.935-2.205-1.461-3.529-1.461c-1.324,0-2.592,0.526-3.529,1.461L73.694,61.305l-0.003,0.003l-72.23,72.23
		c-1.949,1.949-1.949,5.109,0,7.057c1.95,1.948,5.107,1.948,7.057,0l34.657-34.658h171.955l34.655,34.658
		c0.975,0.974,2.252,1.461,3.529,1.461c1.277,0,2.554-0.488,3.529-1.461C258.793,138.646,258.793,135.487,256.844,133.538z
		 M129.156,19.958l39.885,39.887H89.269L129.156,19.958z M53.157,95.958l26.133-26.133h99.731l26.131,26.133H53.157z"/>
	<path d="M225.461,178.169c2.755,0,4.99-2.235,4.99-4.99s-2.235-4.99-4.99-4.99h-72.233h-48.152H32.852
		c-2.755,0-4.99,2.235-4.99,4.99s2.235,4.99,4.99,4.99h67.234v26.132H32.852c-2.755,0-4.99,2.235-4.99,4.99s2.235,4.99,4.99,4.99
		h67.234v26.134H32.852c-2.755,0-4.99,2.235-4.99,4.99s2.235,4.99,4.99,4.99h72.224h48.152h72.233c2.755,0,4.99-2.235,4.99-4.99
		s-2.235-4.99-4.99-4.99h-67.243v-26.134h67.243c2.755,0,4.99-2.235,4.99-4.99s-2.235-4.99-4.99-4.99h-67.243v-26.132H225.461z
		 M148.238,240.415h-38.172v-62.245h38.172V240.415z"/>
	<path d="M225.461,132.077H32.852c-2.755,0-4.99,2.235-4.99,4.99s2.235,4.99,4.99,4.99h192.609c2.755,0,4.99-2.235,4.99-4.99
		S228.216,132.077,225.461,132.077z"/>
</g>
<g>
</g>
<g>
</g>
<g>
</g>
<g>
</g>
<g>
</g>
<g>
</g>
<g>
</g>
<g>
</g>
<g>
</g>
<g>
</g>
<g>
</g>
<g>
</g>
<g>
</g>
<g>
</g>
<g>
</g>
</svg>
