<?xml version="1.0" encoding="iso-8859-1"?>
<!-- Generator: Adobe Illustrator 19.0.0, SVG Export Plug-In . SVG Version: 6.00 Build 0)  -->
<svg version="1.1" id="Capa_1" xmlns="http://www.w3.org/2000/svg" xmlns:xlink="http://www.w3.org/1999/xlink" x="0px" y="0px"
	 viewBox="0 0 512.028 512.028" style="enable-background:new 0 0 512.028 512.028;" xml:space="preserve">
<g>
	<g>
		<path d="M497.294,170.353C461.062,68.202,364.401-0.04,256.014,0.014C147.627-0.04,50.964,68.202,14.733,170.355
			c-36.231,102.153-4.169,216.051,80.03,284.303c0.58,0.619,1.251,1.147,1.989,1.565c14.934,11.939,31.157,22.17,48.365,30.504
			c0.348,0.189,0.71,0.353,1.082,0.49c69.477,33.064,150.154,33.064,219.631,0c0.372-0.137,0.734-0.3,1.082-0.49
			c17.208-8.334,33.43-18.566,48.364-30.504c0.74-0.419,1.412-0.948,1.994-1.568C501.466,386.401,533.526,272.504,497.294,170.353z
			 M139.098,464.272c-6.995-3.946-13.788-8.241-20.352-12.87c2.674-0.825,5.397-1.487,8.152-1.98
			c4.323-0.767,8.573-1.901,12.704-3.388C139.105,452.1,138.937,458.188,139.098,464.272z M355.225,473.291
			c-62.989,28.875-135.432,28.875-198.421,0l0,0c-1.098-11.905-0.774-23.899,0.965-35.727c2.92-1.653,5.616-3.309,8.087-4.924
			v12.541c0,4.713,3.82,8.533,8.533,8.533s8.533-3.82,8.533-8.533v-37.119c4.282,5.313,7.875,10.481,11.2,15.31
			c10.758,15.617,20.917,30.358,45.592,30.358h32.6c24.675,0,34.833-14.742,45.592-30.358c3.326-4.829,6.918-9.998,11.2-15.31
			v37.119c0,4.713,3.82,8.533,8.533,8.533s8.533-3.82,8.533-8.533v-12.538c2.472,1.616,5.169,3.272,8.088,4.924
			C355.999,449.394,356.323,461.387,355.225,473.291z M158.129,313.786c0.162-3.607,0.352-7.203,0.352-10.922
			c-0.137-9.599-1.265-19.158-3.367-28.525c-3.415-16.658-5.266-33.598-5.526-50.6c19.58,19.306,59.38,32.275,106.426,32.275
			s86.846-12.969,106.426-32.275c-0.261,17.002-2.111,33.943-5.526,50.6c-2.101,9.367-3.23,18.926-3.367,28.525
			c0,3.719,0.189,7.315,0.352,10.922c-0.24,1.228-0.2,2.495,0.119,3.705l0.013,0.398c1.108,22.767,1.983,40.75-22.042,62.325
			l-0.206,0.202c-0.1,0.095-0.194,0.184-0.29,0.283c-10.527,9.827-19.812,20.906-27.646,32.99
			c-10.975,15.933-16.458,22.975-31.533,22.975h-32.6c-15.075,0-20.558-7.042-31.533-22.975
			c-7.834-12.084-17.118-23.162-27.646-32.988c-0.096-0.1-0.19-0.19-0.291-0.284l-0.197-0.194
			c-24.033-21.583-23.158-39.567-22.05-62.333l0.013-0.398C158.329,316.281,158.37,315.014,158.129,313.786z M131.572,187.722
			l2.475-2.475c1.601-1.6,2.501-3.77,2.5-6.034c0.112-56.059,39.126-104.527,93.867-116.613v56.879
			c-0.001,2.264,0.897,4.435,2.498,6.035c1.601,1.601,3.772,2.499,6.035,2.498c2.264,0.001,4.435-0.897,6.035-2.498
			c1.601-1.601,2.499-3.772,2.498-6.035V51.214h17.067v68.267c0,4.713,3.821,8.533,8.533,8.533c4.713,0,8.533-3.821,8.533-8.533
			V62.601c54.741,12.085,93.755,60.553,93.867,116.613c0,2.263,0.899,4.434,2.5,6.033l2.533,2.5L131.572,187.722z M141.283,299.211
			c-7.299-7.3-12.312-16.568-14.428-26.672c-1.681-10.982-1.535-22.166,0.433-33.1c2.485,1.178,4.645,2.944,6.293,5.146
			c0.949,11.073,2.54,22.082,4.765,32.971C139.894,284.686,140.875,291.926,141.283,299.211z M378.446,244.584
			c1.648-2.201,3.808-3.967,6.293-5.145c1.952,10.825,2.115,21.897,0.483,32.775c-2.078,10.222-7.112,19.608-14.477,26.994
			c0.408-7.283,1.389-14.523,2.935-21.652C375.906,266.667,377.497,255.657,378.446,244.584z M355.929,204.814
			c-9.718,17.496-48.006,34.133-99.915,34.133s-90.197-16.638-99.915-34.133H355.929z M372.93,464.272
			c0.161-6.084-0.007-12.173-0.504-18.239c4.147,1.492,8.414,2.629,12.754,3.398c2.739,0.491,5.445,1.149,8.103,1.971
			C386.719,456.03,379.926,460.326,372.93,464.272z M409.44,438.994c-6.898-2.875-14.079-5.017-21.425-6.389
			c-7.642-1.492-15.004-4.172-21.817-7.942c-7.038-3.725-13.738-8.055-20.025-12.942v-21.465
			c25.876-24.789,26.081-47.773,25.051-70.01c16.224-10.252,27.426-26.817,30.899-45.692c3.467-29.067,0.317-46.1-9.383-50.617
			c-4.145-1.942-8.884-2.192-13.21-0.696c0.125-5.604,0.157-11.696,0.061-18.429h0.925c6.901-0.017,13.114-4.187,15.742-10.569
			c2.628-6.381,1.155-13.718-3.734-18.59l-0.025-0.025c-1.846-64.526-48.576-118.966-112.077-130.569
			c-2.535-6.563-8.838-10.897-15.873-10.915h-17.067c-7.035,0.018-13.339,4.352-15.873,10.915
			c-63.5,11.603-110.231,66.043-112.077,130.569l-0.025,0.025c-4.888,4.872-6.362,12.208-3.734,18.59
			c2.628,6.382,8.841,10.552,15.742,10.569h0.924c-0.096,6.738-0.064,12.831,0.061,18.438c-4.328-1.501-9.072-1.251-13.219,0.696
			c-9.692,4.508-12.842,21.542-9.333,50.892c3.529,18.766,14.709,35.218,30.858,45.408c-1.03,22.235-0.825,45.216,25.051,70.01
			v21.465c-6.304,4.896-13.021,9.234-20.076,12.967c-6.783,3.751-14.11,6.42-21.717,7.908c-7.363,1.372-14.562,3.516-21.476,6.397
			C25.556,374.47-2.873,268.645,31.455,174.205s124.074-157.31,224.559-157.31s190.232,62.87,224.559,157.31
			S486.471,374.47,409.44,438.994z"/>
	</g>
</g>
<g>
</g>
<g>
</g>
<g>
</g>
<g>
</g>
<g>
</g>
<g>
</g>
<g>
</g>
<g>
</g>
<g>
</g>
<g>
</g>
<g>
</g>
<g>
</g>
<g>
</g>
<g>
</g>
<g>
</g>
</svg>
