<?xml version="1.0" encoding="iso-8859-1"?>
<!-- Generator: Adobe Illustrator 19.0.0, SVG Export Plug-In . SVG Version: 6.00 Build 0)  -->
<svg version="1.1" id="Layer_1" xmlns="http://www.w3.org/2000/svg" xmlns:xlink="http://www.w3.org/1999/xlink" x="0px" y="0px"
	 viewBox="0 0 512 512" style="enable-background:new 0 0 512 512;" xml:space="preserve">
<g transform="translate(1 1)">
	<g>
		<g>
			<path d="M374.467,161.133h51.2c5.12,0,8.533-3.413,8.533-8.533s-3.413-8.533-8.533-8.533h-51.2c-5.12,0-8.533,3.413-8.533,8.533
				S369.347,161.133,374.467,161.133z"/>
			<path d="M340.333,212.333h-93.867c-5.12,0-8.533,3.413-8.533,8.533s3.413,8.533,8.533,8.533h93.867
				c5.12,0,8.533-3.413,8.533-8.533S345.453,212.333,340.333,212.333z"/>
			<path d="M383,212.333c-5.12,0-8.533,3.413-8.533,8.533S377.88,229.4,383,229.4h51.2c5.12,0,8.533-3.413,8.533-8.533
				s-3.413-8.533-8.533-8.533H383z"/>
			<path d="M417.133,195.267c5.12,0,8.533-3.413,8.533-8.533s-3.413-8.533-8.533-8.533h-25.6c-5.12,0-8.533,3.413-8.533,8.533
				s3.413,8.533,8.533,8.533H417.133z"/>
			<path d="M186.733,161.133h25.6c5.12,0,8.533-3.413,8.533-8.533s-3.413-8.533-8.533-8.533h-25.6c-5.12,0-8.533,3.413-8.533,8.533
				S181.613,161.133,186.733,161.133z"/>
			<path d="M186.733,229.4H203.8c5.12,0,8.533-3.413,8.533-8.533s-3.413-8.533-8.533-8.533h-17.067c-5.12,0-8.533,3.413-8.533,8.533
				S181.613,229.4,186.733,229.4z"/>
			<path d="M314.733,186.733c0,5.12,3.413,8.533,8.533,8.533h25.6c5.12,0,8.533-3.413,8.533-8.533s-3.413-8.533-8.533-8.533h-25.6
				C318.147,178.2,314.733,181.613,314.733,186.733z"/>
			<path d="M255,161.133h76.8c5.12,0,8.533-3.413,8.533-8.533s-3.413-8.533-8.533-8.533H255c-5.12,0-8.533,3.413-8.533,8.533
				S249.88,161.133,255,161.133z"/>
			<path d="M289.133,186.733c0-5.12-3.413-8.533-8.533-8.533h-76.8c-5.12,0-8.533,3.413-8.533,8.533s3.413,8.533,8.533,8.533h76.8
				C285.72,195.267,289.133,191.853,289.133,186.733z"/>
			<path d="M459.8,280.6h-51.2c-5.12,0-8.533,3.413-8.533,8.533c0,5.12,3.413,8.533,8.533,8.533h51.2
				c5.12,0,8.533-3.413,8.533-8.533C468.333,284.013,464.92,280.6,459.8,280.6z"/>
			<path d="M383,348.867h-93.867c-5.12,0-8.533,3.413-8.533,8.533c0,5.12,3.413,8.533,8.533,8.533H383
				c5.12,0,8.533-3.413,8.533-8.533C391.533,352.28,388.12,348.867,383,348.867z"/>
			<path d="M459.8,348.867h-42.667c-5.12,0-8.533,3.413-8.533,8.533c0,5.12,3.413,8.533,8.533,8.533H459.8
				c5.12,0,8.533-3.413,8.533-8.533C468.333,352.28,464.92,348.867,459.8,348.867z"/>
			<path d="M417.133,331.8H434.2c5.12,0,8.533-3.413,8.533-8.533s-3.413-8.533-8.533-8.533h-17.067c-5.12,0-8.533,3.413-8.533,8.533
				S412.013,331.8,417.133,331.8z"/>
			<path d="M237.933,297.667h25.6c5.12,0,8.533-3.413,8.533-8.533c0-5.12-3.413-8.533-8.533-8.533h-25.6
				c-5.12,0-8.533,3.413-8.533,8.533C229.4,294.253,232.813,297.667,237.933,297.667z"/>
			<path d="M255,348.867h-17.067c-5.12,0-8.533,3.413-8.533,8.533c0,5.12,3.413,8.533,8.533,8.533H255
				c5.12,0,8.533-3.413,8.533-8.533C263.533,352.28,260.12,348.867,255,348.867z"/>
			<path d="M383,314.733h-25.6c-5.12,0-8.533,3.413-8.533,8.533s3.413,8.533,8.533,8.533H383c5.12,0,8.533-3.413,8.533-8.533
				S388.12,314.733,383,314.733z"/>
			<path d="M297.667,297.667h76.8c5.12,0,8.533-3.413,8.533-8.533c0-5.12-3.413-8.533-8.533-8.533h-76.8
				c-5.12,0-8.533,3.413-8.533,8.533C289.133,294.253,292.547,297.667,297.667,297.667z"/>
			<path d="M323.267,323.267c0-5.12-3.413-8.533-8.533-8.533h-51.2c-5.12,0-8.533,3.413-8.533,8.533s3.413,8.533,8.533,8.533h51.2
				C319.853,331.8,323.267,328.387,323.267,323.267z"/>
			<path d="M468.333,246.467h-6.583c9.413-13.897,15.117-35.184,15.117-59.733c0-43.52-17.92-76.8-42.667-76.8H109.933
				c-33.28,0-59.733,34.133-59.733,76.8c0,24.229,8.536,45.696,22.003,59.733h-13.47C25.453,246.467-1,280.6-1,323.267
				s26.453,76.8,59.733,76.8h102.4h307.2c24.747,0,42.667-33.28,42.667-76.8S493.08,246.467,468.333,246.467z M459.8,186.733
				c0,34.133-13.653,59.733-25.6,59.733H161.133h-13.47c11.762-12.26,19.749-30.193,21.585-50.68c0.01-0.111,0.023-0.22,0.032-0.331
				c0.105-1.213,0.185-2.436,0.246-3.666c0.013-0.253,0.033-0.503,0.044-0.757c0.06-1.423,0.096-2.855,0.096-4.299
				s-0.036-2.876-0.096-4.299c-0.011-0.254-0.031-0.504-0.044-0.757c-0.061-1.23-0.141-2.453-0.246-3.666
				c-0.01-0.111-0.022-0.221-0.032-0.331c-1.836-20.487-9.823-38.419-21.585-50.68H434.2C446.147,127,459.8,152.6,459.8,186.733z
				 M109.933,363.096c3.563,7.612,8.131,14.339,13.47,19.904H96.464C101.803,377.435,106.37,370.708,109.933,363.096z
				 M109.933,263.533h13.47c-5.339,5.565-9.906,12.292-13.47,19.904c-3.563-7.612-8.131-14.339-13.47-19.904H109.933z
				 M67.267,186.733c0-33.28,18.773-59.733,42.667-59.733c23.893,0,42.667,26.453,42.667,59.733
				c0,33.28-18.773,59.733-42.667,59.733C86.04,246.467,67.267,220.013,67.267,186.733z M16.067,323.267
				c0-33.28,18.773-59.733,42.667-59.733s42.667,26.453,42.667,59.733c0,33.28-18.773,59.733-42.667,59.733
				S16.067,356.547,16.067,323.267z M118.467,323.267c0-33.28,18.773-59.733,42.667-59.733c23.893,0,42.667,26.453,42.667,59.733
				c0,33.28-18.773,59.733-42.667,59.733C137.24,383,118.467,356.547,118.467,323.267z M468.333,383h-269.47
				c11.762-12.26,19.749-30.193,21.585-50.68c0.01-0.111,0.023-0.22,0.032-0.331c0.105-1.213,0.185-2.436,0.246-3.666
				c0.013-0.253,0.033-0.503,0.044-0.757c0.06-1.423,0.096-2.855,0.096-4.299s-0.036-2.876-0.096-4.299
				c-0.011-0.254-0.031-0.504-0.044-0.757c-0.061-1.23-0.141-2.453-0.246-3.666c-0.01-0.111-0.022-0.221-0.032-0.331
				c-1.836-20.487-9.823-38.419-21.585-50.68H434.2h34.133c11.947,0,25.6,25.6,25.6,59.733S480.28,383,468.333,383z"/>
			<path d="M58.733,297.667c-5.12,0-8.533,3.413-8.533,8.533v34.133c0,5.12,3.413,8.533,8.533,8.533s8.533-3.413,8.533-8.533V306.2
				C67.267,301.08,63.853,297.667,58.733,297.667z"/>
			<path d="M161.133,297.667c-5.12,0-8.533,3.413-8.533,8.533v34.133c0,5.12,3.413,8.533,8.533,8.533s8.533-3.413,8.533-8.533V306.2
				C169.667,301.08,166.253,297.667,161.133,297.667z"/>
			<path d="M109.933,161.133c-5.12,0-8.533,3.413-8.533,8.533V203.8c0,5.12,3.413,8.533,8.533,8.533s8.533-3.413,8.533-8.533
				v-34.133C118.467,164.547,115.053,161.133,109.933,161.133z"/>
		</g>
	</g>
</g>
<g>
</g>
<g>
</g>
<g>
</g>
<g>
</g>
<g>
</g>
<g>
</g>
<g>
</g>
<g>
</g>
<g>
</g>
<g>
</g>
<g>
</g>
<g>
</g>
<g>
</g>
<g>
</g>
<g>
</g>
</svg>
