<?xml version="1.0" encoding="iso-8859-1"?>
<!-- Generator: Adobe Illustrator 18.0.0, SVG Export Plug-In . SVG Version: 6.00 Build 0)  -->
<!DOCTYPE svg PUBLIC "-//W3C//DTD SVG 1.1//EN" "http://www.w3.org/Graphics/SVG/1.1/DTD/svg11.dtd">
<svg version="1.1" id="Capa_1" xmlns="http://www.w3.org/2000/svg" xmlns:xlink="http://www.w3.org/1999/xlink" x="0px" y="0px"
	 viewBox="0 0 311.104 311.104" style="enable-background:new 0 0 311.104 311.104;" xml:space="preserve">
<path d="M310.694,260.556L241.2,100.076c-0.791-1.826-2.59-3.007-4.58-3.007c-1.989,0-3.789,1.182-4.58,3.007l-30.165,69.662
	L148.55,46.583c-0.79-1.826-2.59-3.007-4.58-3.007c-1.989,0-3.789,1.182-4.579,3.007L74.484,196.484l-18.587-42.922
	c-0.791-1.826-2.59-3.007-4.58-3.007s-3.789,1.182-4.58,3.007L0.411,260.556c-0.668,1.543-0.514,3.317,0.408,4.722
	c0.923,1.405,2.491,2.251,4.171,2.251h92.658h0.02h138.952h69.493c1.68,0,3.248-0.846,4.171-2.251
	C311.207,263.873,311.361,262.098,310.694,260.556z M12.589,257.548l38.728-89.446L69.8,210.786c0.043,0.113,0.093,0.22,0.144,0.33
	l20.106,46.433H12.589z M100.925,257.548l-21.004-48.506l64.049-147.919l85.051,196.425H100.925z M239.898,257.548l-32.584-75.252
	l29.307-67.68l61.895,142.932H239.898z"/>
<g>
</g>
<g>
</g>
<g>
</g>
<g>
</g>
<g>
</g>
<g>
</g>
<g>
</g>
<g>
</g>
<g>
</g>
<g>
</g>
<g>
</g>
<g>
</g>
<g>
</g>
<g>
</g>
<g>
</g>
</svg>
