<svg id="Слой_1" data-name="Слой 1" xmlns="http://www.w3.org/2000/svg" viewBox="0 0 208.89 196.5"><defs><style>.cls-1{fill:#fff;}.cls-2,.cls-3,.cls-4,.cls-5{fill:none;}.cls-3,.cls-4,.cls-5{stroke:#000;stroke-miterlimit:10;}.cls-3{stroke-width:12px;}.cls-4{stroke-width:10px;}.cls-5{stroke-width:8px;}</style></defs><title>treeSearchLogo</title><path class="cls-1" d="M312.22,290a50.6,50.6,0,0,1-37.09-15.83,51.14,51.14,0,0,0,10.81-5.81c13.2-9.24,21-18.59,23.15-27.81a9.61,9.61,0,0,0,.23-1.52c5-8.36,7.06-16.65,6.21-24.66a65.73,65.73,0,0,0-3.83-15.08c0-.45-.08-.87-.11-1.29h.63c27.1,0,49.15,20.64,49.15,46S339.32,290,312.22,290Z" transform="translate(-156.48 -145)"/><path d="M316.92,202.23c22.7,2.19,40.45,20.09,40.45,41.77,0,23.16-20.26,42-45.15,42a47,47,0,0,1-30-10.66,58.52,58.52,0,0,0,6.06-3.71c14-9.82,22.35-20,24.75-30.17q.13-.57.22-1.14c5.1-8.86,7.22-17.73,6.31-26.37a59.42,59.42,0,0,0-2.59-11.72m-4.7-8.23c-1.62,0-3.22.08-4.8.21,0,2,.15,4,.35,6a63.34,63.34,0,0,1,3.79,14.61c.88,8.31-1.91,16.17-6.23,23.12a5.33,5.33,0,0,1-.13,1.73c-2.46,10.47-13.19,19.59-21.55,25.44-4,2.83-9.47,5.75-14.85,6.76l-.52.27A54.07,54.07,0,0,0,312.22,294c29.36,0,53.15-22.39,53.15-50s-23.8-50-53.15-50Z" transform="translate(-156.48 -145)"/><path class="cls-1" d="M192.89,298.5c-17.87,0-32.41-13.91-32.41-31,0-15.12,11.45-27.9,26.67-30.51a7.66,7.66,0,0,0,4.34,4.06,18,18,0,0,0,2.4,4.61,35,35,0,0,0,6.85,12,29.44,29.44,0,0,0,8.19,6.42q.59.49,1.19,1c.61.78,1.16,1.44,1.71,2.06A29.22,29.22,0,0,0,223.58,275q.33.13.68.22C220.62,288.74,207.77,298.5,192.89,298.5Z" transform="translate(-156.48 -145)"/><path d="M185.32,241.48a11.63,11.63,0,0,0,3,2.49,21.61,21.61,0,0,0,2,3.54,38.74,38.74,0,0,0,7.45,12.82,33.35,33.35,0,0,0,8.93,7.1l.6.48c.55.68,1.05,1.29,1.56,1.86a32.08,32.08,0,0,0,10.41,7.75c-4.22,10-14.57,17-26.37,17-15.66,0-28.41-12.11-28.41-27,0-12.32,8.78-22.85,20.83-26m5.23-8.9c-19,1.16-34.07,16.35-34.07,34.92,0,19.33,16.3,35,36.41,35,18.48,0,33.72-13.23,36.07-30.38a19.37,19.37,0,0,1-2.44-.58h-.18a3.7,3.7,0,0,1-1.34-.24,25.29,25.29,0,0,1-10.18-6.83c-.65-.73-1.26-1.49-1.86-2.27-.61-.46-1.21-.94-1.79-1.44a25.46,25.46,0,0,1-7.44-5.74,31.12,31.12,0,0,1-6.26-11.26,14.88,14.88,0,0,1-2.8-6.06l-.61-.11a4,4,0,0,1-3.52-5Z" transform="translate(-156.48 -145)"/><circle id="_Эллипс_" data-name="&lt;Эллипс&gt;" class="cls-2" cx="93.52" cy="70" r="70"/><path id="_Составной_контур_" data-name="&lt;Составной контур&gt;" d="M250,156a59,59,0,1,1-59,59,59.07,59.07,0,0,1,59-59m69.95,56.31A70,70,0,0,0,250,145h0a70,70,0,1,0,70,70q0-1.35-.05-2.69" transform="translate(-156.48 -145)"/><line class="cls-3" x1="93.52" y1="139.5" x2="93.52" y2="196.5"/><line class="cls-4" x1="155.52" y1="145" x2="155.52" y2="196.5"/><line class="cls-5" x1="36.52" y1="152" x2="36.52" y2="196.5"/></svg>