<?xml version="1.0" encoding="iso-8859-1"?>
<!-- Generator: Adobe Illustrator 19.0.0, SVG Export Plug-In . SVG Version: 6.00 Build 0)  -->
<svg version="1.1" id="Capa_1" xmlns="http://www.w3.org/2000/svg" xmlns:xlink="http://www.w3.org/1999/xlink" x="0px" y="0px"
	 viewBox="0 0 511.999 511.999" style="enable-background:new 0 0 511.999 511.999;" xml:space="preserve">
<g>
	<g>
		<path d="M492.701,268.142c-13.412-17.73-31.643-27.495-51.332-27.495h-37.971c10.979-16.008,16.987-36.339,16.987-57.725
			c0-22.842-6.854-44.483-19.298-60.936c-13.412-17.73-31.642-27.495-51.332-27.495h-183.23c-19.69,0-37.92,9.765-51.332,27.495
			c-12.446,16.453-19.298,38.094-19.298,60.936c0,21.385,6.008,41.717,16.987,57.725H70.63c-19.69,0-37.92,9.765-51.332,27.495
			C6.854,284.594,0,306.236,0,329.078c0,22.842,6.854,44.483,19.298,60.936c13.412,17.73,31.642,27.495,51.332,27.495h370.738
			c19.69,0,37.92-9.765,51.332-27.495c12.446-16.453,19.298-38.094,19.298-60.936C511.999,306.236,505.146,284.594,492.701,268.142z
			 M70.63,386.803c-21.641,0-39.923-26.436-39.923-57.725c0-31.289,18.283-57.725,39.923-57.725
			c21.64,0,39.924,26.435,39.924,57.725C110.555,360.368,92.272,386.803,70.63,386.803z M220.168,125.196h129.587
			c21.64,0,39.923,26.436,39.923,57.725c0,31.289-18.283,57.725-39.923,57.725H220.168c10.979-16.008,16.987-36.339,16.987-57.725
			C237.156,161.535,231.147,141.205,220.168,125.196z M204.497,386.803h-80.222c10.979-16.008,16.987-36.339,16.987-57.725
			c0-21.386-6.008-41.717-16.987-57.725h80.222c-10.979,16.008-16.987,36.339-16.987,57.725
			C187.509,350.464,193.518,370.794,204.497,386.803z M166.524,240.646c-21.64,0-39.923-26.436-39.923-57.725
			c0-31.289,18.283-57.725,39.923-57.725s39.923,26.435,39.923,57.725S188.165,240.646,166.524,240.646z M258.139,386.803
			c-21.64,0-39.923-26.436-39.923-57.725c0-31.289,18.283-57.725,39.923-57.725s39.923,26.435,39.923,57.725
			C298.062,360.368,279.779,386.803,258.139,386.803z M441.369,386.802H311.783c10.979-16.008,16.987-36.339,16.987-57.725
			s-6.008-41.717-16.987-57.725h129.586c21.641,0,39.924,26.435,39.924,57.725C481.293,360.367,463.01,386.802,441.369,386.802z"/>
	</g>
</g>
<g>
</g>
<g>
</g>
<g>
</g>
<g>
</g>
<g>
</g>
<g>
</g>
<g>
</g>
<g>
</g>
<g>
</g>
<g>
</g>
<g>
</g>
<g>
</g>
<g>
</g>
<g>
</g>
<g>
</g>
</svg>
