<?xml version="1.0" encoding="iso-8859-1"?>
<!-- Generator: Adobe Illustrator 18.0.0, SVG Export Plug-In . SVG Version: 6.00 Build 0)  -->
<!DOCTYPE svg PUBLIC "-//W3C//DTD SVG 1.1//EN" "http://www.w3.org/Graphics/SVG/1.1/DTD/svg11.dtd">
<svg version="1.1" id="Capa_1" xmlns="http://www.w3.org/2000/svg" xmlns:xlink="http://www.w3.org/1999/xlink" x="0px" y="0px"
	 viewBox="0 0 226.377 226.377" style="enable-background:new 0 0 226.377 226.377;" xml:space="preserve">
<g>
	<path d="M200.764,130.05H83.661c-2.755,0-4.99,2.235-4.99,4.99c0,2.756,2.235,4.99,4.99,4.99h117.103c2.755,0,4.99-2.234,4.99-4.99
		C205.754,132.285,203.519,130.05,200.764,130.05z"/>
	<path d="M142.209,159.071H79.775c-2.755,0-4.99,2.234-4.99,4.99c0,2.756,2.235,4.99,4.99,4.99h62.434c2.755,0,4.99-2.234,4.99-4.99
		C147.199,161.305,144.965,159.071,142.209,159.071z"/>
	<path d="M196.97,159.071h-25.716c-2.755,0-4.99,2.234-4.99,4.99c0,2.756,2.235,4.99,4.99,4.99h25.716c2.755,0,4.99-2.234,4.99-4.99
		C201.96,161.305,199.725,159.071,196.97,159.071z"/>
	<path d="M134.536,111.374h62.434c2.755,0,4.99-2.234,4.99-4.99c0-2.756-2.235-4.99-4.99-4.99h-62.434
		c-2.755,0-4.99,2.234-4.99,4.99C129.546,109.14,131.78,111.374,134.536,111.374z"/>
	<path d="M79.775,111.374h25.717c2.755,0,4.99-2.234,4.99-4.99c0-2.756-2.235-4.99-4.99-4.99H79.775c-2.755,0-4.99,2.234-4.99,4.99
		C74.785,109.14,77.02,111.374,79.775,111.374z"/>
	<path d="M50.186,135.04c0-28.11-8.794-34.011-16.172-34.011s-16.171,5.901-16.171,34.011s8.793,34.011,16.171,34.011
		S50.186,163.151,50.186,135.04z M27.823,135.04c0-17.507,3.797-24.031,6.191-24.031s6.192,6.524,6.192,24.031
		s-3.798,24.031-6.192,24.031S27.823,152.547,27.823,135.04z"/>
	<path d="M192.369,72.006h-26.841V44.17c0-9.047-11.503-15.869-26.757-15.869c-15.254,0-26.756,6.822-26.756,15.869v27.835H34.014
		C14.941,72.006,0,99.694,0,135.04s14.941,63.035,34.014,63.035h158.355c19.07,0,34.008-27.688,34.008-63.035
		S211.439,72.006,192.369,72.006z M138.771,38.281c10.439,0,16.777,4.09,16.777,5.889c0,1.8-6.338,5.894-16.777,5.894
		c-10.438,0-16.776-4.094-16.776-5.894C121.995,42.371,128.333,38.281,138.771,38.281z M9.98,135.04
		c0-31.266,12.667-53.055,24.034-53.055s24.034,21.789,24.034,53.055s-12.667,53.055-24.034,53.055S9.98,166.307,9.98,135.04z
		 M192.369,188.095H52.61c9.343-11.12,15.418-30.525,15.418-53.055c0-22.53-6.075-41.935-15.418-53.055h64.395
		c2.755,0,4.99-2.234,4.99-4.99V56.714c4.527,2.101,10.312,3.33,16.776,3.33c6.465,0,12.25-1.229,16.777-3.33v20.281
		c0,2.756,2.235,4.99,4.99,4.99h31.831c11.365,0,24.028,21.789,24.028,53.055S203.734,188.095,192.369,188.095z"/>
</g>
<g>
</g>
<g>
</g>
<g>
</g>
<g>
</g>
<g>
</g>
<g>
</g>
<g>
</g>
<g>
</g>
<g>
</g>
<g>
</g>
<g>
</g>
<g>
</g>
<g>
</g>
<g>
</g>
<g>
</g>
</svg>
