<svg xmlns="http://www.w3.org/2000/svg" viewBox="0 0 93.19 107.61"><defs><style>.cls-1{fill:#559797;}.cls-2{fill:#74bdc1;}</style></defs><title>Ресурс 2</title><g id="Слой_2" data-name="Слой 2"><g id="Слой_1-2" data-name="Слой 1"><polygon class="cls-1" points="21.21 39.14 21.21 56.59 46.6 71.25 46.6 53.75 21.25 39.11 21.21 39.14"/><polygon class="cls-2" points="71.98 56.59 71.98 39.13 71.95 39.11 46.6 53.75 46.6 71.25 71.98 56.59"/><polygon class="cls-2" points="77.99 35.62 93.19 26.9 78.04 18.15 46.6 0 46.6 17.49 77.99 35.62"/><polygon class="cls-2" points="15.15 53.09 15.15 35.65 0 26.9 0 80.71 15.15 71.96 15.15 53.09"/><polygon class="cls-1" points="46.6 17.49 46.6 0 0 26.9 15.15 35.65 46.6 17.49"/><polygon class="cls-1" points="15.15 71.96 0 80.71 46.6 107.61 46.6 90.12 15.15 71.96"/><polygon class="cls-2" points="78.04 71.96 46.6 90.12 46.6 107.61 93.19 80.71 78.04 71.96"/><polygon class="cls-1" points="78.04 35.65 78.04 53.09 78.04 71.96 93.19 80.71 93.19 44.34 93.19 26.9 77.99 35.62 78.04 35.65"/></g></g></svg>