<svg xmlns="http://www.w3.org/2000/svg" viewBox="0 0 109.66 126.63"><defs><style>.cls-1{fill:#553824;}.cls-2{fill:#ae8658;}</style></defs><title>Ресурс 1</title><g id="Слой_2" data-name="Слой 2"><g id="Слой_1-2" data-name="Слой 1"><polygon class="cls-1" points="24.96 46.05 24.96 66.58 54.83 83.84 54.83 63.25 25 46.02 24.96 46.05"/><polygon class="cls-2" points="84.7 66.58 84.7 46.04 84.67 46.02 54.83 63.25 54.83 83.84 84.7 66.58"/><polygon class="cls-2" points="91.78 41.91 109.66 31.66 91.83 21.36 54.83 0 54.83 20.58 91.78 41.91"/><polygon class="cls-2" points="17.83 62.47 17.83 41.95 0 31.66 0 94.97 17.83 84.67 17.83 62.47"/><polygon class="cls-1" points="54.83 20.58 54.83 0 0 31.66 17.83 41.95 54.83 20.58"/><polygon class="cls-1" points="17.83 84.67 0 94.97 54.83 126.63 54.83 106.04 17.83 84.67"/><polygon class="cls-2" points="91.83 84.67 54.83 106.04 54.83 126.63 109.66 94.97 91.83 84.67"/><polygon class="cls-1" points="91.83 41.95 91.83 62.47 91.83 84.67 109.66 94.97 109.66 52.18 109.66 31.66 91.78 41.91 91.83 41.95"/></g></g></svg>