<svg id="Слой_1" data-name="Слой 1" xmlns="http://www.w3.org/2000/svg" viewBox="0 0 216.89 196.5"><defs><style>.cls-1,.cls-2,.cls-4,.cls-5,.cls-6,.cls-7{fill:none;}.cls-1,.cls-4,.cls-5,.cls-6{stroke:#e6e6e6;}.cls-1,.cls-4,.cls-5,.cls-6,.cls-7{stroke-miterlimit:10;}.cls-1{stroke-width:8px;}.cls-3{fill:#e6e6e6;}.cls-4{stroke-width:14px;}.cls-5{stroke-width:10px;}.cls-6{stroke-width:9px;}.cls-7{stroke:#202124;stroke-width:3px;}</style></defs><title>logo-gray</title><path class="cls-1" d="M268.27,272.11A54.07,54.07,0,0,0,312.22,294c29.36,0,53.15-22.39,53.15-50s-23.8-50-53.15-50" transform="translate(-152.48 -145)"/><path class="cls-1" d="M312.22,194c-1.62,0-3.22.08-4.8.21" transform="translate(-152.48 -145)"/><path class="cls-1" d="M190.55,232.58c-19,1.16-34.07,16.35-34.07,34.92,0,19.33,16.3,35,36.41,35,18.48,0,33.72-13.23,36.07-30.38" transform="translate(-152.48 -145)"/><circle id="_Эллипс_" data-name="&lt;Эллипс&gt;" class="cls-2" cx="97.52" cy="70" r="70"/><path id="_Составной_контур_" data-name="&lt;Составной контур&gt;" class="cls-3" d="M250,156a59,59,0,1,1-59,59,59.07,59.07,0,0,1,59-59m69.95,56.31A70,70,0,0,0,250,145h0a70,70,0,1,0,70,70q0-1.35-.05-2.69" transform="translate(-152.48 -145)"/><line class="cls-4" x1="97.52" y1="139.5" x2="97.52" y2="196.5"/><line class="cls-5" x1="159.52" y1="145" x2="159.52" y2="196.5"/><line class="cls-1" x1="40.52" y1="157" x2="40.52" y2="196.5"/><path class="cls-6" d="M239.28,278a47.39,47.39,0,0,0,0-9.55c-2.73-26.25-26.55-45.4-53.7-43.63" transform="translate(-152.48 -145)"/><path class="cls-5" d="M304.64,181.68c-29.59,6-52.4,29.91-54.06,59.75a62.16,62.16,0,0,0,10.94,38.71" transform="translate(-152.48 -145)"/><circle class="cls-7" cx="97.52" cy="70" r="58"/></svg>